<svg width="25" height="24" viewBox="0 0 25 24" fill="none" xmlns="http://www.w3.org/2000/svg">
<g id="icons8-cargo_ship 1">
<path id="Vector" d="M7.23825 1.48935C7.03951 1.49245 6.85013 1.57432 6.7117 1.71696C6.57327 1.85959 6.49712 2.05135 6.49997 2.25009V4.00009H6.24997C5.29249 4.00009 4.49997 4.79261 4.49997 5.75009V11.5255C3.37814 11.6517 2.49997 12.5951 2.49997 13.7501V17.0772C2.49997 17.1502 2.51072 17.2221 2.53122 17.2921L2.55271 17.3634C2.61921 17.3569 2.67947 17.3419 2.74997 17.3419C3.39297 17.3419 3.8637 17.6168 4.2822 18.0958C4.2992 18.1068 4.32258 18.1213 4.34958 18.1368L3.99997 16.9679V13.7501C3.99997 13.3366 4.33647 13.0001 4.74997 13.0001H5.12692C5.20744 13.0133 5.28957 13.0133 5.37009 13.0001H9.62692C9.70744 13.0133 9.78957 13.0133 9.87009 13.0001H16.0566C16.3211 13.0001 16.5676 12.8609 16.7021 12.6329L17.1611 11.8585C17.4751 11.329 18.052 11.0001 18.667 11.0001H21.747C21.846 11.0001 21.9085 11.0545 21.9365 11.087C21.9655 11.1195 22.011 11.1901 21.997 11.2911C21.5505 14.4961 19.2371 17.5578 18.4951 18.4708C18.6496 18.4878 18.8145 18.5001 19 18.5001C19.855 18.5001 20.3719 18.2873 20.6074 18.1593C21.6779 16.6223 23.1139 14.1456 23.4824 11.4981C23.5529 10.9936 23.4014 10.4852 23.0674 10.1017C22.7354 9.71915 22.2535 9.50009 21.747 9.50009H18.667C17.5245 9.50009 16.4531 10.1108 15.8711 11.0938L15.6299 11.5001H10.5V8.0997L11.2929 7.26767C11.4259 7.12815 11.5 6.94281 11.5 6.75009V5.75009C11.5 4.79261 10.7074 4.00009 9.74997 4.00009H7.99997V2.25009C8.00141 2.14971 7.98269 2.05006 7.9449 1.95705C7.90712 1.86403 7.85105 1.77955 7.78002 1.70861C7.70898 1.63767 7.62443 1.5817 7.53137 1.54404C7.43831 1.50638 7.33863 1.48778 7.23825 1.48935ZM6.24997 5.50009H9.74997C9.89749 5.50009 9.99997 5.60257 9.99997 5.75009V6.45029L9.207 7.28134C9.07406 7.42087 8.99993 7.6062 8.99997 7.79892V11.5001H5.99997V5.75009C5.99997 5.60257 6.10245 5.50009 6.24997 5.50009ZM19.25 12.0001C19.0511 12.0001 18.8603 12.0791 18.7196 12.2198C18.579 12.3604 18.5 12.5512 18.5 12.7501C18.5 12.949 18.579 13.1398 18.7196 13.2804C18.8603 13.4211 19.0511 13.5001 19.25 13.5001C19.4489 13.5001 19.6397 13.4211 19.7803 13.2804C19.921 13.1398 20 12.949 20 12.7501C20 12.5512 19.921 12.3604 19.7803 12.2198C19.6397 12.0791 19.4489 12.0001 19.25 12.0001ZM2.73044 18.4923C2.58118 18.4946 2.436 18.5413 2.31347 18.6266C2.19094 18.7118 2.09664 18.8317 2.04264 18.9709C1.98863 19.1101 1.97737 19.2622 2.01031 19.4078C2.04324 19.5534 2.11887 19.6858 2.22751 19.7882C2.22751 19.7882 2.60036 20.1377 3.22556 20.4298C3.85075 20.7218 4.77803 21.0001 5.99997 21.0001C7.22191 21.0001 8.14919 20.7218 8.77438 20.4298C9.07228 20.2906 9.07978 20.2452 9.24997 20.1241C9.42016 20.2452 9.42766 20.2906 9.72556 20.4298C10.3508 20.7218 11.278 21.0001 12.5 21.0001C13.7219 21.0001 14.6492 20.7218 15.2744 20.4298C15.5723 20.2906 15.5798 20.2452 15.75 20.1241C15.9202 20.2452 15.9277 20.2906 16.2256 20.4298C16.8508 20.7218 17.778 21.0001 19 21.0001C20.2219 21.0001 21.1492 20.7218 21.7744 20.4298C22.3996 20.1377 22.7724 19.7882 22.7724 19.7882C22.8447 19.7199 22.9027 19.638 22.943 19.5472C22.9834 19.4564 23.0052 19.3584 23.0074 19.2591C23.0096 19.1597 22.992 19.0609 22.9556 18.9684C22.9193 18.8759 22.8649 18.7916 22.7957 18.7203C22.7264 18.649 22.6437 18.5921 22.5523 18.5531C22.4609 18.514 22.3627 18.4935 22.2633 18.4927C22.1639 18.4919 22.0654 18.5109 21.9734 18.5486C21.8814 18.5862 21.7978 18.6418 21.7275 18.712C21.7275 18.712 21.5848 18.8624 21.1396 19.0704C20.6944 19.2784 19.9965 19.5001 19 19.5001C18.0034 19.5001 17.3055 19.2784 16.8603 19.0704C16.4151 18.8624 16.2724 18.712 16.2724 18.712C16.1325 18.5761 15.9451 18.5001 15.75 18.5001C15.5549 18.5001 15.3675 18.5761 15.2275 18.712C15.2275 18.712 15.0848 18.8624 14.6396 19.0704C14.1944 19.2784 13.4965 19.5001 12.5 19.5001C11.5034 19.5001 10.8055 19.2784 10.3603 19.0704C9.94038 18.8742 9.82144 18.7484 9.80563 18.7325C9.73379 18.655 9.64637 18.5935 9.54909 18.5521C9.45181 18.5107 9.34688 18.4903 9.24118 18.4923C9.21801 18.4928 9.19487 18.4945 9.17185 18.4972C8.98842 18.5144 8.81774 18.5985 8.69235 18.7335C8.6757 18.7502 8.55816 18.8749 8.13962 19.0704C7.69444 19.2783 6.99653 19.5001 5.99997 19.5001C5.00341 19.5001 4.3055 19.2784 3.86032 19.0704C3.41514 18.8624 3.27243 18.712 3.27243 18.712C3.20141 18.641 3.11684 18.5849 3.02373 18.5471C2.93063 18.5094 2.83089 18.4907 2.73044 18.4923Z" fill="white"/>
</g>
</svg>
