<svg width="25" height="25" viewBox="0 0 25 25" fill="none" xmlns="http://www.w3.org/2000/svg">
<g id="icons8-element_level 1">
<path id="Vector" d="M12.5 2.07715C11.7264 2.07715 10.9533 2.25809 10.2458 2.62036C10.2451 2.6207 10.2444 2.62104 10.2438 2.62138L4.15753 5.75452C3.20526 6.24495 2.60419 7.23017 2.60419 8.30172V16.6981C2.60419 17.7693 3.20458 18.7542 4.15753 19.2443L10.2438 22.3785C10.2441 22.3788 10.2444 22.3791 10.2448 22.3795C11.6599 23.104 13.3392 23.104 14.7543 22.3795C14.7549 22.3791 14.7556 22.3788 14.7563 22.3785L20.8425 19.2443C21.7948 18.7539 22.3948 17.7693 22.3948 16.6981V8.30172C22.3948 7.23075 21.7951 6.24572 20.8425 5.75553H20.8415L14.7563 2.62138C14.7559 2.62104 14.7556 2.6207 14.7553 2.62036C14.0477 2.25809 13.2736 2.07715 12.5 2.07715ZM12.5 3.63965C13.029 3.63965 13.5585 3.76382 14.0432 4.01196L20.1264 7.14408C20.1267 7.14442 20.127 7.14476 20.1274 7.1451C20.5619 7.36857 20.8323 7.81252 20.8323 8.30172V16.6981C20.8323 17.1873 20.5616 17.6316 20.1264 17.8558L14.0422 20.9879C13.0736 21.4838 11.9277 21.4841 10.9589 20.9889L10.9568 20.9879L4.87266 17.8558C4.87266 17.8554 4.87266 17.8551 4.87266 17.8547C4.43809 17.6313 4.16669 17.1873 4.16669 16.6981V8.30172C4.16669 7.81181 4.43743 7.36823 4.87266 7.14408L10.9579 4.01196C11.4425 3.76382 11.971 3.63965 12.5 3.63965ZM5.97434 7.54692C5.79912 7.54841 5.62948 7.60877 5.49268 7.7183C5.35589 7.82782 5.25989 7.98015 5.2201 8.15081C5.18031 8.32147 5.19905 8.50055 5.27329 8.65927C5.34754 8.818 5.473 8.94716 5.6295 9.026L10.2295 11.4165C10.7015 11.6617 11.2068 11.7949 11.7188 11.8774V19.5312C11.7173 19.6347 11.7364 19.7375 11.775 19.8335C11.8136 19.9296 11.871 20.0171 11.9436 20.0908C12.0163 20.1645 12.103 20.223 12.1985 20.263C12.294 20.303 12.3965 20.3235 12.5 20.3235C12.6036 20.3235 12.7061 20.303 12.8016 20.263C12.8971 20.223 12.9837 20.1645 13.0564 20.0908C13.1291 20.0171 13.1864 19.9296 13.225 19.8335C13.2636 19.7375 13.2827 19.6347 13.2813 19.5312V11.8774C13.7932 11.7949 14.2975 11.6617 14.7695 11.4165C14.7698 11.4165 14.7702 11.4165 14.7705 11.4165L19.3705 9.02702C19.5545 8.93151 19.6931 8.76682 19.7556 8.56918C19.8182 8.37154 19.7997 8.15714 19.7042 7.97314C19.6087 7.78915 19.444 7.65062 19.2464 7.58805C19.0487 7.52548 18.8343 7.54398 18.6503 7.63949L14.0493 10.03C13.5664 10.2806 13.0393 10.4044 12.5122 10.4064C12.5031 10.4059 12.4939 10.4056 12.4848 10.4054C11.9585 10.4029 11.4319 10.2804 10.9497 10.03L6.34971 7.6405C6.23441 7.57833 6.10533 7.54615 5.97434 7.54692ZM18.9982 11.9679C18.7912 11.9711 18.5939 12.0564 18.4497 12.205C18.3055 12.3536 18.2262 12.5533 18.2292 12.7603V15.5852C18.2292 15.5963 18.2265 15.6017 18.217 15.6066C18.2166 15.6066 18.2163 15.6066 18.216 15.6066L16.0482 16.7225C15.9569 16.7695 15.8758 16.8341 15.8095 16.9124C15.7432 16.9908 15.6929 17.0814 15.6617 17.1792C15.6304 17.277 15.6187 17.38 15.6272 17.4823C15.6357 17.5846 15.6643 17.6842 15.7113 17.7755C15.7584 17.8667 15.8229 17.9478 15.9013 18.0141C15.9796 18.0804 16.0703 18.1307 16.1681 18.1619C16.2659 18.1932 16.3689 18.2049 16.4712 18.1963C16.5735 18.1878 16.6731 18.1592 16.7643 18.1121L18.9311 16.9952C19.458 16.724 19.7917 16.1774 19.7917 15.5852V12.7603C19.7932 12.6558 19.7737 12.552 19.7343 12.4551C19.695 12.3582 19.6366 12.2702 19.5626 12.1963C19.4886 12.1224 19.4005 12.0641 19.3036 12.0249C19.2066 11.9856 19.1028 11.9663 18.9982 11.9679Z" fill="black"/>
</g>
</svg>
