<svg width="18" height="18" viewBox="0 0 18 18" fill="none" xmlns="http://www.w3.org/2000/svg">
<g id="Component 4">
<path id="Vector" d="M15 11.1251C15.9811 9.99877 16.5 9 16.5 9C16.5 9 13.7727 3.75 9 3.75C8.7441 3.75 8.49405 3.7651 8.25 3.79366C7.99335 3.82371 7.7433 3.86866 7.5 3.92664M9 6.75C9.26295 6.75 9.5154 6.79511 9.75 6.87803C10.3893 7.10399 10.896 7.6107 11.122 8.25C11.2048 8.4846 11.25 8.73705 11.25 9M2.25 2.25L15.75 15.75M9 11.25C8.73705 11.25 8.4846 11.2048 8.25 11.122C7.6107 10.896 7.10398 10.3893 6.87802 9.75C6.83539 9.6294 6.80275 9.50407 6.7811 9.375M3.11026 6.75C2.87908 7.00838 2.67175 7.26181 2.48898 7.5C1.83964 8.34615 1.5 9 1.5 9C1.5 9 4.22727 14.25 9 14.25C9.2559 14.25 9.50595 14.2349 9.75 14.2063" stroke="#ACB5B3" stroke-width="1.125" stroke-linecap="round" stroke-linejoin="round"/>
</g>
</svg>
