<svg width="121" height="120" viewBox="0 0 121 120" fill="none" xmlns="http://www.w3.org/2000/svg">
<g id="icons8-product 1">
<path id="Vector" d="M92.9 14.3999C92.5818 14.3999 92.2765 14.5263 92.0515 14.7514C91.8264 14.9764 91.7 15.2816 91.7 15.5999C91.7 15.9182 91.8264 16.2234 92.0515 16.4484C92.2765 16.6735 92.5818 16.7999 92.9 16.7999C93.2183 16.7999 93.5235 16.6735 93.7485 16.4484C93.9736 16.2234 94.1 15.9182 94.1 15.5999C94.1 15.2816 93.9736 14.9764 93.7485 14.7514C93.5235 14.5263 93.2183 14.3999 92.9 14.3999Z" fill="#F1BC19"/>
<path id="Vector_2" d="M60.5 15.6001C48.7244 15.6001 37.4311 20.2779 29.1044 28.6046C20.7778 36.9312 16.1 48.2245 16.1 60.0001C16.1 71.7757 20.7778 83.069 29.1044 91.3956C37.4311 99.7223 48.7244 104.4 60.5 104.4C72.2756 104.4 83.5689 99.7223 91.8955 91.3956C100.222 83.069 104.9 71.7757 104.9 60.0001C104.9 48.2245 100.222 36.9312 91.8955 28.6046C83.5689 20.2779 72.2756 15.6001 60.5 15.6001Z" fill="#E6EDB7"/>
<path id="Vector_3" d="M100.1 13.2002C98.8269 13.2002 97.606 13.7059 96.7059 14.6061C95.8057 15.5063 95.3 16.7272 95.3 18.0002C95.3 19.2732 95.8057 20.4941 96.7059 21.3943C97.606 22.2945 98.8269 22.8002 100.1 22.8002C101.373 22.8002 102.594 22.2945 103.494 21.3943C104.394 20.4941 104.9 19.2732 104.9 18.0002C104.9 16.7272 104.394 15.5063 103.494 14.6061C102.594 13.7059 101.373 13.2002 100.1 13.2002Z" fill="#F1BC19"/>
<path id="Vector_4" d="M104.9 26.3999C104.263 26.3999 103.653 26.6528 103.203 27.1028C102.753 27.5529 102.5 28.1634 102.5 28.7999C102.5 29.4364 102.753 30.0469 103.203 30.497C103.653 30.947 104.263 31.1999 104.9 31.1999C105.537 31.1999 106.147 30.947 106.597 30.497C107.047 30.0469 107.3 29.4364 107.3 28.7999C107.3 28.1634 107.047 27.5529 106.597 27.1028C106.147 26.6528 105.537 26.3999 104.9 26.3999Z" fill="#88AE45"/>
<path id="Vector_5" d="M87.2 48.9131V50.8775V83.0159C87.2 86.3603 84.5228 89.0975 81.2504 89.0975H39.722C36.4496 89.0975 33.7724 86.3603 33.7724 83.0159V50.8163V48.9131" fill="#BD977C"/>
<path id="Vector_6" d="M81.2504 89.9363H39.722C35.978 89.9363 32.9324 86.8307 32.9324 83.0147V48.9131H34.6124V83.0159C34.6124 85.9055 36.9044 88.2563 39.7208 88.2563H81.2504C84.068 88.2563 86.3588 85.9055 86.3588 83.0159V48.9131H88.0388V83.0159C88.04 86.8307 84.9944 89.9363 81.2504 89.9363Z" fill="#472B29"/>
<path id="Vector_7" d="M74.6216 53.0386V60.7402L77.3408 58.4758L80.06 60.7402V53.0386H74.6216Z" fill="#EE3E54"/>
<path id="Vector_8" d="M80.9 61.9558L77.336 59.2282L73.7 61.9354V52.7998H80.9V61.9558ZM74.9 53.9998V59.545L77.3456 57.7222L79.7 59.5246V53.9998H74.9Z" fill="#472B29"/>
<path id="Vector_9" d="M35.66 53.1598C33.278 53.1598 31.34 50.9434 31.34 48.2206V36.8398H89.66V48.2194C89.66 50.9434 87.722 53.1586 85.34 53.1586L35.66 53.1598Z" fill="#F6CCA4"/>
<path id="Vector_10" d="M88.82 37.68V48.2208C88.82 50.4816 87.2588 52.3212 85.34 52.3212H35.66C33.7412 52.3212 32.18 50.4816 32.18 48.2208V37.68H88.82ZM90.1976 36H30.9944C30.722 36 30.5 36.2496 30.5 36.5532V48.2196C30.5 51.3996 32.822 54 35.66 54H85.34C88.178 54 90.5 51.3996 90.5 48.2208V36.3384C90.5 36.1512 90.3644 36 90.1976 36Z" fill="#472B29"/>
<path id="Vector_11" d="M77.342 58.6501C77.1824 58.6501 77.0516 58.5193 77.0516 58.3597V53.5609C77.0516 53.4013 77.1824 53.2705 77.342 53.2705C77.5016 53.2705 77.6324 53.4013 77.6324 53.5609V58.3597C77.6324 58.5193 77.5016 58.6501 77.342 58.6501Z" fill="#472B29"/>
<g id="Group">
<path id="Vector_12" d="M79.7096 58.8518C79.6736 58.8518 79.6364 58.8386 79.6064 58.8146L77.4092 56.9738C77.3408 56.9174 77.3312 56.8154 77.3888 56.747C77.444 56.6774 77.5472 56.6714 77.6156 56.7266L79.8128 58.5674C79.8812 58.6238 79.8908 58.7258 79.8332 58.7942C79.802 58.8302 79.7564 58.8518 79.7096 58.8518Z" fill="#472B29"/>
</g>
<g id="Group_2">
<path id="Vector_13" d="M79.7096 57.2005C79.6736 57.2005 79.6364 57.1873 79.6064 57.1633L77.4092 55.3225C77.3408 55.2661 77.3312 55.1641 77.3888 55.0957C77.444 55.0273 77.5472 55.0201 77.6156 55.0753L79.8128 56.9161C79.8812 56.9725 79.8908 57.0745 79.8332 57.1429C79.802 57.1813 79.7564 57.2005 79.7096 57.2005Z" fill="#472B29"/>
</g>
<g id="Group_3">
<path id="Vector_14" d="M78.7256 85.2H42.2756C39.752 85.2 37.7 83.148 37.7 80.6256V60.6C37.7 60.2688 37.9688 60 38.3 60C38.6312 60 38.9 60.2688 38.9 60.6V80.6256C38.9 82.4856 40.4144 84 42.2756 84H78.7256C80.5856 84 82.1 82.4856 82.1 80.6256V75C82.1 74.6688 82.3688 74.4 82.7 74.4C83.0312 74.4 83.3 74.6688 83.3 75V80.6256C83.3 83.148 81.248 85.2 78.7256 85.2Z" fill="#472B29"/>
</g>
<g id="Group_4">
<path id="Vector_15" d="M79.9892 55.9178C79.9532 55.9178 79.916 55.9046 79.886 55.8806L77.6888 54.0398C77.6204 53.9834 77.6108 53.8814 77.6684 53.813C77.7248 53.7446 77.8268 53.735 77.8952 53.7926L80.0924 55.6334C80.1608 55.6898 80.1704 55.7918 80.1128 55.8602C80.0816 55.8974 80.0348 55.9178 79.9892 55.9178Z" fill="#472B29"/>
</g>
<g id="Group_5">
<path id="Vector_16" d="M59.9 84.9002C59.5688 84.9002 59.3 84.6314 59.3 84.3002V72.3266C59.3 71.9954 59.5688 71.7266 59.9 71.7266C60.2312 71.7266 60.5 71.9954 60.5 72.3266V84.3002C60.5 84.6314 60.2312 84.9002 59.9 84.9002Z" fill="#472B29"/>
</g>
<g id="Group_6">
<path id="Vector_17" d="M59.9 60.6001C59.5688 60.6001 59.3 60.3313 59.3 60.0001V56.7001C59.3 56.3689 59.5688 56.1001 59.9 56.1001C60.2312 56.1001 60.5 56.3689 60.5 56.7001V60.0001C60.5 60.3313 60.2324 60.6001 59.9 60.6001Z" fill="#472B29"/>
</g>
<g id="Group_7">
<path id="Vector_18" d="M82.7 72.0002C82.3688 72.0002 82.1 71.7314 82.1 71.4002V67.8002C82.1 67.469 82.3688 67.2002 82.7 67.2002C83.0312 67.2002 83.3 67.469 83.3 67.8002V71.4002C83.3 71.7314 83.0312 72.0002 82.7 72.0002Z" fill="#472B29"/>
</g>
<g id="Group_8">
<path id="Vector_19" d="M65.3264 65.5502H53.5748C52.4348 65.5502 51.5012 64.4546 51.5012 63.113C51.5012 61.7726 52.4336 60.6758 53.5748 60.6758H65.3264C66.4664 60.6758 67.4 61.7714 67.4 63.113C67.4 64.4522 66.4664 65.5502 65.3264 65.5502Z" fill="#FDFCEE"/>
</g>
<g id="Group_9">
<path id="Vector_20" d="M65.0984 66H53.9C52.2464 66 50.9 64.6548 50.9 63C50.9 61.3452 52.2464 60 53.9 60H65.0984C66.752 60 68.0984 61.3452 68.0984 63C68.0984 64.6548 66.752 66 65.0984 66ZM53.9 61.2C52.9076 61.2 52.1 62.0076 52.1 63C52.1 63.9924 52.9076 64.8 53.9 64.8H65.0984C66.0908 64.8 66.8984 63.9924 66.8984 63C66.8984 62.0076 66.0908 61.2 65.0984 61.2H53.9Z" fill="#472B29"/>
</g>
<g id="Group_10">
<path id="Vector_21" d="M45.5 78.5997C45.1688 78.5997 44.9 78.3309 44.9 77.9997V70.7997C44.9 70.4685 45.1688 70.1997 45.5 70.1997C45.8312 70.1997 46.1 70.4685 46.1 70.7997V77.9997C46.1 78.3309 45.8324 78.5997 45.5 78.5997ZM55.7012 80.9997H42.5C42.1688 80.9997 41.9 80.7309 41.9 80.3997C41.9 80.0685 42.1688 79.7997 42.5 79.7997H55.7012C56.0324 79.7997 56.3012 80.0685 56.3012 80.3997C56.3012 80.7309 56.0324 80.9997 55.7012 80.9997ZM52.7 78.5997C52.3688 78.5997 52.1 78.3309 52.1 77.9997V70.7997C52.1 70.4685 52.3688 70.1997 52.7 70.1997C53.0312 70.1997 53.3 70.4685 53.3 70.7997V77.9997C53.3 78.3309 53.0324 78.5997 52.7 78.5997Z" fill="#472B29"/>
<path id="Vector_22" d="M45.5 68.3999L42.5 73.1999H48.5L45.5 68.3999ZM52.7 68.3999L49.7 73.1999H55.7L52.7 68.3999Z" fill="#472B29"/>
</g>
</g>
</svg>
