<svg width="49" height="49" viewBox="0 0 49 49" fill="none" xmlns="http://www.w3.org/2000/svg">
<g id="Component 17">
<path id="Vector" d="M5.32191 28.1029C5.2452 28.1029 5.16924 28.118 5.09838 28.1474C5.02751 28.1768 4.96312 28.2198 4.90888 28.274C4.85464 28.3283 4.81161 28.3927 4.78226 28.4635C4.7529 28.5344 4.73779 28.6103 4.73779 28.6871C4.73779 28.7638 4.7529 28.8397 4.78226 28.9106C4.81161 28.9815 4.85464 29.0458 4.90888 29.1001C4.96312 29.1543 5.02751 29.1974 5.09838 29.2267C5.16924 29.2561 5.2452 29.2712 5.32191 29.2712C5.39861 29.2712 5.47457 29.2561 5.54544 29.2267C5.61631 29.1974 5.6807 29.1543 5.73494 29.1001C5.78918 29.0458 5.8322 28.9815 5.86156 28.9106C5.89091 28.8397 5.90602 28.7638 5.90602 28.6871C5.90602 28.6103 5.89091 28.5344 5.86156 28.4635C5.8322 28.3927 5.78918 28.3283 5.73494 28.274C5.6807 28.2198 5.61631 28.1768 5.54544 28.1474C5.47457 28.118 5.39861 28.1029 5.32191 28.1029ZM43.6787 12.0723C43.5582 12.0723 43.4427 12.1201 43.3575 12.2053C43.2723 12.2905 43.2244 12.4061 43.2244 12.5266C43.2244 12.6471 43.2723 12.7626 43.3575 12.8478C43.4427 12.933 43.5582 12.9809 43.6787 12.9809C43.7992 12.9809 43.9148 12.933 44 12.8478C44.0852 12.7626 44.133 12.6471 44.133 12.5266C44.133 12.4061 44.0852 12.2905 44 12.2053C43.9148 12.1201 43.7992 12.0723 43.6787 12.0723Z" fill="white"/>
<path id="Vector_2" d="M24.3381 0C17.8832 0 11.6927 2.56418 7.12846 7.12846C2.56418 11.6927 0 17.8832 0 24.3381C0 30.7929 2.56418 36.9834 7.12846 41.5477C11.6927 46.112 17.8832 48.6761 24.3381 48.6761C30.7929 48.6761 36.9834 46.112 41.5477 41.5477C46.112 36.9834 48.6761 30.7929 48.6761 24.3381C48.6761 17.8832 46.112 11.6927 41.5477 7.12846C36.9834 2.56418 30.7929 0 24.3381 0Z" fill="#F9DBD2"/>
<path id="Vector_3" d="M36.3448 38.0971C36.0852 36.6692 35.5011 35.8904 34.203 35.501L34.0083 35.4361L33.6189 35.3063C32.7752 34.9818 27.9725 33.1646 27.9725 33.1646C27.5831 33.0996 27.3235 32.84 27.1937 32.4506C27.0639 31.8665 26.999 31.2175 27.0639 30.5685C26.0254 30.9579 24.9221 31.2175 23.8188 31.4771C22.5857 31.6069 19.9247 29.9844 19.9247 29.9844C19.9247 29.9844 19.8598 31.9314 19.7949 32.3857C19.6651 32.7751 19.3406 33.0347 18.9512 33.0996L14.2134 34.852C13.6942 34.9818 13.2398 35.1765 12.7855 35.4361C11.812 36.0851 11.0981 36.9937 10.7087 38.162C10.7087 38.162 10.3842 40.3037 10.3842 40.3686C10.3842 40.6931 10.3193 41.0176 10.3193 41.3421C15.3816 44.7819 19.4055 45.6905 26.35 45.4309C29.5301 45.3011 34.203 43.7435 36.6693 42.5104C36.6044 39.7196 36.3448 38.0971 36.3448 38.0971Z" fill="#895F3F"/>
<path id="Vector_4" d="M10.9684 37.0586C11.228 36.4096 13.0452 35.1765 13.7591 34.9169L14.7326 34.5923L18.4969 33.0996C19.4705 35.6308 21.8069 46.0799 22.9102 48.5462C20.8334 48.6111 18.7565 48.3515 16.7446 47.8323C14.4081 46.9236 12.2015 45.7554 10.1246 44.3925C10.2544 43.8733 10.0597 39.0706 10.9684 37.0586ZM36.0203 36.5394C35.7607 35.8904 35.2415 35.8255 34.5276 35.6308L33.5541 35.3063L29.7898 33.8135C28.8163 36.3447 25.052 46.1448 23.8838 48.6111C26.35 48.7409 28.8163 48.4164 31.1527 47.7674C35.3064 46.5991 36.8641 45.5607 36.8641 45.4958C36.8641 44.9766 36.8641 38.6162 36.0203 36.5394Z" fill="#F4989E"/>
<path id="Vector_5" d="M14.7976 47.0529C14.6678 47.0529 14.538 46.9231 14.538 46.8582V44.2621C14.538 44.1323 14.6678 44.0674 14.7976 44.0674C14.9274 44.0674 15.0572 44.1972 15.0572 44.2621V46.8582C15.0572 46.9231 14.9274 47.0529 14.7976 47.0529ZM31.8667 47.5072C31.7369 47.5072 31.672 47.3774 31.672 47.3125V44.2621C31.672 44.1323 31.8018 44.0674 31.8667 44.0674C31.9316 44.0674 32.0614 44.1972 32.0614 44.2621V47.3125C32.1263 47.3774 31.9965 47.5072 31.8667 47.5072Z" fill="#E5838D"/>
<path id="Vector_6" d="M22.9751 35.0462C21.4824 35.0462 19.9247 34.8515 18.4969 34.3323C19.4704 37.4476 20.4439 40.5629 21.3526 43.6781H26.5447C27.7129 40.6927 28.5566 37.5774 29.5301 34.527L28.2321 34.0078C26.6096 34.7217 24.7923 35.0462 22.9751 35.0462Z" fill="#FDFCEF"/>
<path id="Vector_7" d="M27.8427 33.0996L32.0613 34.6572C32.0613 34.6572 25.9606 45.4309 24.7924 47.5077H21.0281L27.8427 33.0996Z" fill="#EE3E54"/>
<path id="Vector_8" d="M18.8863 32.9043L14.7975 34.5917C14.7975 34.5917 20.3142 46.5985 21.4824 48.6754H25.2467L18.8863 32.9043Z" fill="#F4516D"/>
<path id="Vector_9" d="M31.3475 20.8977H31.0879C30.4388 20.8977 30.309 21.0924 30.309 20.703C30.3739 19.989 30.2441 17.1983 30.2441 17.0685C30.2441 14.1479 27.1938 11.8114 23.4295 11.6816H23.2997C19.5354 11.8114 16.485 14.1479 16.485 17.0685C16.485 17.1983 16.3552 19.989 16.4201 20.703C16.4201 21.0924 16.2903 20.8328 15.6413 20.8977H15.5115C14.8625 20.8977 14.3433 21.352 14.1486 21.9361C14.2135 22.001 14.538 24.3374 15.0572 25.311C15.3168 25.8302 15.7711 25.8951 16.2254 26.2196C16.4201 26.3494 16.5499 26.609 16.6148 26.8686C16.9393 27.907 17.5234 28.8156 18.3672 29.5296C18.7566 29.919 21.2877 32.5799 23.4944 32.4501C25.701 32.3203 28.2322 29.8541 28.6216 29.5296C29.4653 28.8156 30.0494 27.907 30.3739 26.8686C30.4388 26.609 30.5686 26.3494 30.7633 26.2196C31.2177 25.8951 31.672 25.8302 31.9316 25.311C32.4508 24.4023 32.7753 22.001 32.8402 21.9361C32.5157 21.352 31.9965 20.8977 31.3475 20.8977Z" fill="#A3754F"/>
<path id="Vector_10" d="M23.2348 32.7097C21.8718 32.7097 20.1844 31.7361 18.2374 29.7891L18.1076 29.6593C17.2638 28.9454 16.6797 27.9718 16.2903 26.9334C16.2254 26.6738 16.1605 26.544 15.9658 26.4142C15.836 26.2844 15.7062 26.2195 15.5764 26.1546C15.2519 25.9599 14.9923 25.8301 14.7327 25.3758C14.3433 24.7268 14.0837 23.3638 13.9539 22.585C13.889 22.3903 13.889 22.1307 13.8241 22.0658L13.7592 22.0009L13.8241 21.8062C14.0188 21.0923 14.6678 20.638 15.3817 20.638H15.6413C15.9009 20.638 16.0956 20.638 16.1605 20.7029C16.0956 20.1188 16.1605 18.2366 16.2254 17.4578C16.2254 17.2631 16.2254 17.1333 16.2254 17.1333C16.2254 14.1478 19.2758 11.6816 23.2348 11.5518H23.4295C27.3885 11.6816 30.4388 14.1478 30.4388 17.1333C30.4388 17.1333 30.4388 17.2631 30.4388 17.4578C30.4388 18.2366 30.5037 20.1188 30.5037 20.7029C30.6336 20.7029 30.8283 20.638 31.0879 20.638H31.2826C31.9965 20.638 32.6455 21.1572 32.8402 21.8062L32.9051 22.0009L32.8402 22.0658C32.8402 22.1956 32.7753 22.3903 32.7104 22.585C32.5806 23.3638 32.321 24.6619 31.9316 25.3758C31.7369 25.7652 31.4124 25.9599 31.0879 26.1546C30.9581 26.2195 30.8283 26.2844 30.6985 26.4142C30.5687 26.544 30.4388 26.7387 30.4388 26.9334C30.1143 28.0367 29.4653 29.0103 28.6216 29.7242L28.4918 29.854C26.4799 31.6712 24.7924 32.6448 23.3646 32.7097C23.3646 32.7097 23.2997 32.7097 23.2348 32.7097ZM14.4082 21.936C14.4082 22.0658 14.4731 22.1956 14.538 22.585C14.6678 23.3638 14.9274 24.597 15.2519 25.246C15.3817 25.5056 15.6413 25.6354 15.9009 25.8301C16.0307 25.895 16.2254 26.0248 16.3552 26.0897C16.6148 26.2844 16.7446 26.544 16.8095 26.8685C17.134 27.842 17.7181 28.6858 18.497 29.3997L18.6268 29.5295C21.0281 31.9308 22.5858 32.3202 23.4295 32.3202C24.7275 32.2553 26.3501 31.2818 28.2971 29.5295L28.4269 29.3997C29.2057 28.6858 29.7898 27.842 30.1143 26.8685C30.1792 26.6089 30.309 26.2844 30.5687 26.0897C30.7634 25.9599 30.8932 25.895 31.023 25.8301C31.2826 25.7003 31.5422 25.5705 31.672 25.246C31.9965 24.6619 32.2561 23.3638 32.3859 22.585C32.4508 22.2605 32.5157 22.0658 32.5157 21.936C32.321 21.4817 31.9316 21.1572 31.4124 21.1572H31.1528C30.9581 21.1572 30.7634 21.1572 30.6336 21.1572C30.5037 21.1572 30.3739 21.2221 30.2441 21.0923C30.1143 20.9625 30.1143 20.8327 30.1143 20.7029C30.1792 20.1837 30.1143 18.1717 30.0494 17.4578C30.0494 17.2631 30.0494 17.1333 30.0494 17.1333C30.0494 14.3425 27.1938 12.1359 23.4944 12.0061H23.3646C19.6652 12.071 16.8095 14.3425 16.8095 17.1333C16.8095 17.1333 16.8095 17.2631 16.8095 17.4578C16.8095 18.1717 16.7446 20.1837 16.7446 20.7029C16.7446 20.8327 16.7446 21.0274 16.6148 21.0923C16.485 21.2221 16.3552 21.1572 16.2254 21.1572C16.0956 21.1572 15.9658 21.0923 15.7711 21.1572H15.5115C14.9923 21.1572 14.538 21.4168 14.4082 21.936Z" fill="#472B29"/>
<path id="Vector_11" d="M23.4943 25.5067C23.9486 25.5067 24.338 25.312 24.6626 24.9875C24.6626 24.9875 24.6626 24.9226 24.6626 24.8577C24.6626 24.8577 24.5977 24.8577 24.5328 24.8577C23.9486 25.3769 23.04 25.3769 22.4559 24.8577H22.391H22.3261C22.3261 24.8577 22.3261 24.9226 22.3261 24.9875C22.6506 25.312 23.04 25.5067 23.4943 25.5067ZM22.0665 19.4708L22.3261 18.9516C21.093 18.692 19.8598 18.692 18.6267 19.0814L18.9512 19.6006C19.9896 19.2761 21.0281 19.2761 22.0665 19.4708ZM28.0374 19.4708L28.297 18.9516C27.0639 18.692 25.8308 18.692 24.5977 19.0814L24.9222 19.6006C25.9606 19.2761 26.999 19.2761 28.0374 19.4708ZM20.3791 20.2496C20.0545 20.2496 19.7949 20.4444 19.73 20.704C19.7949 20.704 19.7949 20.704 19.8598 20.704C20.1194 20.704 20.3142 20.8987 20.3142 21.1583C20.3142 21.4179 20.1194 21.6126 19.8598 21.6126C19.7949 21.6126 19.73 21.6126 19.6651 21.5477C19.73 21.9371 20.0545 22.2616 20.444 22.2616C21.0281 22.1318 21.3526 21.5477 21.2228 20.9636C21.0281 20.6391 20.7036 20.3794 20.3791 20.2496ZM26.5447 20.2496C26.2851 20.2496 26.0904 20.3794 25.9606 20.5742C26.0255 20.5742 26.0904 20.5742 26.0904 20.5742C26.35 20.5742 26.5447 20.7689 26.5447 21.0285C26.5447 21.2881 26.35 21.4828 26.0904 21.4828C25.9606 21.4828 25.8308 21.4179 25.7659 21.2881C25.8957 21.7424 26.35 22.002 26.8043 21.8722C27.2586 21.7424 27.5182 21.2881 27.3884 20.8338C27.2586 20.5093 26.9341 20.2496 26.5447 20.2496ZM26.9341 26.6749C26.9341 26.6749 26.9341 26.61 26.9341 26.5451C26.9341 26.5451 26.8692 26.5451 26.8043 26.5451C25.8308 27.1941 24.6626 27.5186 23.4943 27.4537C22.3261 27.5186 21.1579 27.1941 20.1843 26.5451H20.1194H20.0545C20.0545 26.5451 20.0545 26.61 20.0545 26.6749C22.0665 28.1027 24.7924 28.1027 26.9341 26.6749ZM17.0691 18.5622C17.3936 17.1344 17.8479 15.7714 18.5618 14.5383C18.3671 14.2138 17.9128 14.084 17.5883 14.2138C16.6797 15.9012 16.1605 17.7834 16.2254 19.7304C16.2903 20.6391 16.4201 21.4828 16.6797 22.3265C16.8744 21.0934 16.8095 19.7953 17.0691 18.5622ZM29.9196 18.5622C29.5951 17.1344 29.1408 15.7714 28.4268 14.5383C28.6215 14.2138 29.0759 14.084 29.4004 14.2138C30.309 15.9012 30.7633 17.7834 30.7633 19.7304C30.6984 20.6391 30.5686 21.4828 30.309 22.3265C30.1143 21.0934 30.1792 19.7953 29.9196 18.5622ZM24.4029 30.1147C24.4678 30.1147 24.4678 30.0498 24.4678 29.9849C24.4678 29.92 24.4678 29.8551 24.4029 29.8551H22.7155C22.6506 29.92 22.6506 29.92 22.6506 29.9849C22.6506 30.0498 22.6506 30.1147 22.7155 30.1147H24.4029Z" fill="#512C2B"/>
<path id="Vector_12" d="M24.1433 48.8058C18.3671 48.8058 14.6677 47.6375 10.1895 44.6521C10.1246 44.5872 10.0597 44.4574 10.0597 44.3276C10.0597 44.2627 10.0597 44.068 10.0597 43.7434C10.0597 42.3156 10.1246 39.3301 10.4491 38.1619C10.7087 36.9288 11.4875 35.8255 12.6558 35.2413C13.1101 34.9817 13.6293 34.787 14.1485 34.6572L18.7565 33.0347C19.081 32.9698 19.2757 32.7751 19.4055 32.5155C19.4055 32.3208 19.4704 31.7367 19.4704 31.2175C19.0161 30.8929 18.5618 30.5684 18.1075 30.179C17.2638 29.4002 16.6147 28.4267 16.2902 27.3234C16.2253 27.1287 16.1604 26.9339 16.0306 26.8041C15.9008 26.7392 15.771 26.6094 15.6412 26.5445C15.3167 26.3498 14.9922 26.1551 14.7326 25.7657C14.2134 24.6624 13.8889 23.4293 13.824 22.261C13.824 22.1961 13.824 22.1961 13.824 22.1312C14.0187 21.4173 14.7326 20.8981 15.5114 20.8981H15.771C15.9657 20.8981 16.0955 20.8981 16.2253 20.8981C16.2253 20.1193 16.2253 18.4318 16.2902 17.7179C16.2902 17.5232 16.2902 17.3934 16.2902 17.3934C16.2902 14.2781 19.4055 11.747 23.3645 11.6172H23.5592C27.5831 11.747 30.6984 14.2781 30.6984 17.3934C30.6984 17.3934 30.6984 17.5232 30.6984 17.7179C30.6984 18.4967 30.7633 20.2491 30.7633 20.963C30.8931 20.963 31.0229 20.963 31.2176 20.963H31.4772C32.256 20.963 32.905 21.4822 33.1646 22.1961C33.1646 22.261 33.1646 22.261 33.1646 22.3259C33.0348 23.5591 32.7752 24.7273 32.256 25.8306C31.9964 26.2849 31.6719 26.4796 31.3474 26.6743C31.2176 26.7392 31.0878 26.8041 30.958 26.9339C30.8282 27.0638 30.7633 27.1936 30.6984 27.3883C30.3739 28.5565 29.7249 29.53 28.8811 30.3088C28.4268 30.6982 27.9076 31.0876 27.4533 31.4771C27.4533 31.8665 27.5182 32.3208 27.5831 32.7102C27.648 32.9049 27.9076 33.0996 28.1672 33.1645C28.3619 33.2294 33.0348 34.9817 33.8137 35.3062L34.3978 35.5009C35.7607 35.8904 36.4746 36.7341 36.7991 38.3566C36.7991 38.3566 36.7991 38.3566 36.7991 38.4215C36.7991 38.4215 37.0587 42.8997 37.1236 45.6905C37.1236 45.8203 37.0587 45.9501 36.9289 46.015C34.3329 47.313 29.5302 48.8707 26.4798 49.0005C25.5712 48.7409 24.8572 48.8058 24.1433 48.8058ZM10.7087 44.1978C15.5114 47.4428 19.4704 48.4164 26.4149 48.0918C29.3354 47.962 33.8137 46.5342 36.4097 45.3011C36.2799 42.6401 36.0852 38.6162 36.0852 38.2917C35.8256 36.9288 35.3064 36.2798 34.1382 35.9553L33.4891 35.6957C32.7103 35.3711 27.9076 33.6188 27.8427 33.5539C27.3884 33.4241 27.0639 33.0996 26.8692 32.7102C26.6745 32.1261 26.6745 31.6069 26.6745 31.0876C26.6745 30.9578 26.7394 30.8929 26.8043 30.828C27.3235 30.4386 27.8427 30.0492 28.297 29.6598C29.0758 29.0108 29.66 28.1022 29.9196 27.1287C29.9845 26.869 30.1143 26.5445 30.3739 26.3498C30.5686 26.22 30.6984 26.1551 30.8282 26.0253C31.0878 25.8955 31.2825 25.7657 31.4772 25.5061C31.9315 24.5326 32.256 23.4293 32.3209 22.3259C32.1911 21.8716 31.7368 21.612 31.2825 21.612H31.0229C30.8282 21.612 30.6984 21.612 30.5686 21.6769C30.3739 21.6769 30.1792 21.7418 30.0494 21.612C29.9196 21.4822 29.9196 21.2226 29.9196 21.1577C29.9845 20.5736 29.9196 18.6266 29.8547 17.8477C29.8547 17.653 29.8547 17.5232 29.8547 17.5232C29.8547 14.7974 26.999 12.5258 23.3645 12.396H23.2347C19.6002 12.5258 16.7446 14.7974 16.7446 17.5232C16.7446 17.5232 16.7446 17.653 16.7446 17.8477C16.7446 18.6266 16.6796 20.5736 16.6796 21.1577C16.6796 21.2875 16.6796 21.4822 16.5498 21.612C16.5498 21.5471 16.3551 21.5471 16.2253 21.5471C16.0955 21.5471 15.9657 21.4822 15.771 21.5471H15.5114C15.0571 21.5471 14.6028 21.8716 14.473 22.261C14.6028 23.3644 14.8624 24.4677 15.3167 25.5061C15.4465 25.7657 15.6412 25.8955 15.9657 26.0253C16.0955 26.0902 16.2902 26.22 16.42 26.2849C16.6796 26.4796 16.8744 26.8041 16.9393 27.1287C17.1989 28.0373 17.783 28.9459 18.5618 29.5949C19.0161 29.9843 19.5353 30.3737 19.9896 30.6982C20.0545 30.7631 20.1194 30.8929 20.1194 30.9578C20.0545 31.6718 20.0545 32.3208 19.9896 32.5804C19.7949 33.0996 19.4055 33.489 18.8863 33.5539L14.2783 35.1764C13.7591 35.3062 13.3048 35.501 12.9154 35.7606C11.9418 36.2798 11.2279 37.1884 11.0332 38.2268C10.7087 39.3301 10.7087 42.3805 10.6438 43.6785C10.7087 43.9381 10.7087 44.068 10.7087 44.1978Z" fill="#472B29"/>
<path id="Vector_13" d="M31.4123 24.0778L31.0229 24.0129L31.1527 22.8446L30.5037 23.1042L30.3739 22.7797L31.3474 22.3254C31.4124 22.3254 31.4773 22.3254 31.5422 22.3254C31.6071 22.3903 31.6071 22.4552 31.6071 22.5201L31.4123 24.0778ZM15.7062 23.8181L15.5115 22.3254C15.5115 22.2605 15.5115 22.1956 15.5764 22.1307C15.6413 22.0658 15.7062 22.0658 15.7711 22.1307L16.7446 22.5201L16.6148 22.9095L15.9658 22.6499L16.0956 23.8181H15.7062Z" fill="#895D3D"/>
<path id="Vector_14" d="M16.5498 26.739C16.4849 26.739 16.42 26.6741 16.42 26.6092L16.5498 20.9628C16.5498 20.8979 16.6147 20.833 16.6796 20.833C16.7446 20.833 16.8095 20.8979 16.8095 20.9628L16.6796 26.6092C16.6796 26.6741 16.6147 26.739 16.5498 26.739ZM30.4388 26.739C30.3739 26.739 30.309 26.6741 30.309 26.6092L30.1792 20.9628C30.1792 20.8979 30.2441 20.833 30.309 20.833C30.3739 20.833 30.4388 20.8979 30.4388 20.9628L30.5686 26.6092C30.5686 26.6741 30.5037 26.739 30.4388 26.739Z" fill="#472B29"/>
<path id="Vector_15" d="M30.8282 19.3411C31.1527 16.1609 30.244 14.2788 29.5301 13.435C26.2201 10.7741 21.6121 10.4496 18.0426 12.786C16.7445 14.084 15.3167 16.4854 16.0306 19.3411C16.1604 20.7689 16.3551 22.1967 16.6796 23.5597C16.8094 22.2616 16.8094 19.406 17.069 18.1728C17.2637 17.2642 17.5233 16.3556 17.9128 15.5119C19.6651 13.5648 27.0639 13.6297 28.946 15.5119C29.3354 16.3556 29.595 17.2642 29.7897 18.1728C30.0493 19.406 30.0493 22.2616 30.3089 23.4948C30.5685 22.1318 30.7633 20.704 30.8282 19.3411Z" fill="#512C2B"/>
<path id="Vector_16" d="M22.6506 20.6381C21.3526 19.0805 16.5499 20.1838 16.5499 20.1838C16.6148 20.5083 16.7446 20.8978 16.8095 21.2223C17.134 21.2872 17.1989 22.066 17.1989 22.3905C17.3936 23.8183 18.3022 24.8567 20.3142 24.7918C21.6771 24.7918 22.8453 23.6885 22.8453 22.3256C22.9102 21.7415 22.8453 21.1574 22.6506 20.6381ZM22.4559 22.3905C22.4559 23.5587 21.4824 24.4673 20.3791 24.4673C20.3791 24.4673 20.3791 24.4673 20.3142 24.4673H19.9247C17.9128 24.4673 17.5883 22.715 17.5883 21.6117C17.5234 20.9627 18.0426 20.4434 18.6267 20.3785C19.0161 20.3136 19.4704 20.3136 19.8598 20.3136C21.3526 20.3136 22.0016 20.6381 22.1314 20.9627C22.391 21.417 22.4559 21.9362 22.4559 22.3905ZM24.0784 22.3256C24.0784 23.6885 25.1818 24.7918 26.6096 24.7918C26.6096 24.7918 26.6096 24.7918 26.6745 24.7918C28.6865 24.8567 29.5951 23.8183 29.7898 22.3905C29.8547 22.066 29.8547 21.2872 30.1792 21.2223C30.2441 20.8978 30.309 20.5083 30.4388 20.1838C30.4388 20.1838 25.6361 19.0805 24.338 20.6381C24.0784 21.1574 24.0135 21.7415 24.0784 22.3256ZM24.7924 21.0276C24.9871 20.7679 25.6361 20.3785 27.0639 20.3785C27.4533 20.3785 27.9076 20.3785 28.297 20.4434C28.9461 20.5083 29.4004 21.0276 29.3355 21.6766C29.2706 22.7799 28.9461 24.5322 26.999 24.5322H26.6096C25.4414 24.5322 24.5328 23.6885 24.4679 22.5203C24.4679 22.5203 24.4679 22.5203 24.4679 22.4554C24.4679 21.9362 24.5328 21.417 24.7924 21.0276Z" fill="#F1BC19"/>
<path id="Vector_17" d="M24.338 21.8711C24.0784 21.6764 23.7539 21.6115 23.4294 21.6115C23.1049 21.6115 22.8453 21.6764 22.5857 21.8711L22.326 21.1572H24.5976C24.5327 21.4168 24.4029 21.6115 24.338 21.8711Z" fill="#F1BC19"/>
</g>
</svg>
