<svg width="235" height="235" viewBox="0 0 235 235" fill="none" xmlns="http://www.w3.org/2000/svg">
<g id="Component 16">
<path id="Vector" d="M47.94 130.659C47.379 130.659 46.8411 130.882 46.4444 131.279C46.0478 131.675 45.825 132.213 45.825 132.774C45.825 133.335 46.0478 133.873 46.4444 134.27C46.8411 134.666 47.379 134.889 47.94 134.889C48.5009 134.889 49.0388 134.666 49.4355 134.27C49.8321 133.873 50.0549 133.335 50.0549 132.774C50.0549 132.213 49.8321 131.675 49.4355 131.279C49.0388 130.882 48.5009 130.659 47.94 130.659ZM186.59 72.6143C186.154 72.6143 185.735 72.7876 185.427 73.0961C185.118 73.4046 184.945 73.823 184.945 74.2593C184.945 74.6955 185.118 75.114 185.427 75.4224C185.735 75.7309 186.154 75.9043 186.59 75.9043C187.026 75.9043 187.445 75.7309 187.753 75.4224C188.062 75.114 188.235 74.6955 188.235 74.2593C188.235 73.823 188.062 73.4046 187.753 73.0961C187.445 72.7876 187.026 72.6143 186.59 72.6143Z" fill="white"/>
<path id="Vector_2" d="M180.48 27.4951C179.919 27.4951 179.381 27.7179 178.984 28.1146C178.588 28.5112 178.365 29.0492 178.365 29.6101C178.365 30.1711 178.588 30.709 178.984 31.1056C179.381 31.5023 179.919 31.7251 180.48 31.7251C181.041 31.7251 181.579 31.5023 181.975 31.1056C182.372 30.709 182.595 30.1711 182.595 29.6101C182.595 29.0492 182.372 28.5112 181.975 28.1146C181.579 27.7179 181.041 27.4951 180.48 27.4951ZM49.1149 148.755C48.554 148.755 48.016 148.978 47.6194 149.375C47.2228 149.771 46.9999 150.309 46.9999 150.87C46.9999 151.431 47.2228 151.969 47.6194 152.366C48.016 152.762 48.554 152.985 49.1149 152.985C49.6759 152.985 50.2138 152.762 50.6105 152.366C51.0071 151.969 51.2299 151.431 51.2299 150.87C51.2299 150.309 51.0071 149.771 50.6105 149.375C50.2138 148.978 49.6759 148.755 49.1149 148.755Z" fill="#F1BC19"/>
<path id="Vector_3" d="M116.795 28.9053C93.4226 28.9053 71.0077 38.1898 54.481 54.7165C37.9544 71.2431 28.6698 93.6581 28.6698 117.03C28.6698 140.402 37.9544 162.817 54.481 179.344C71.0077 195.871 93.4226 205.155 116.795 205.155C140.167 205.155 162.582 195.871 179.109 179.344C195.635 162.817 204.92 140.402 204.92 117.03C204.92 93.6581 195.635 71.2431 179.109 54.7165C162.582 38.1898 140.167 28.9053 116.795 28.9053Z" fill="#E6EDB7"/>
<path id="Vector_4" d="M193.405 25.1445C190.912 25.1445 188.521 26.1349 186.758 27.8977C184.995 29.6606 184.005 32.0515 184.005 34.5445C184.005 37.0376 184.995 39.4285 186.758 41.1913C188.521 42.9542 190.912 43.9445 193.405 43.9445C195.898 43.9445 198.289 42.9542 200.052 41.1913C201.815 39.4285 202.805 37.0376 202.805 34.5445C202.805 32.0515 201.815 29.6606 200.052 27.8977C198.289 26.1349 195.898 25.1445 193.405 25.1445Z" fill="#F1BC19"/>
<path id="Vector_5" d="M202.805 51.4648C202.218 51.4648 201.638 51.5803 201.096 51.8047C200.554 52.0291 200.062 52.358 199.648 52.7726C199.233 53.1872 198.904 53.6794 198.68 54.2212C198.455 54.7629 198.34 55.3435 198.34 55.9298C198.34 56.5162 198.455 57.0968 198.68 57.6385C198.904 58.1802 199.233 58.6725 199.648 59.0871C200.062 59.5017 200.554 59.8306 201.096 60.055C201.638 60.2794 202.218 60.3948 202.805 60.3948C203.391 60.3948 203.972 60.2794 204.513 60.055C205.055 59.8306 205.547 59.5017 205.962 59.0871C206.377 58.6725 206.706 58.1802 206.93 57.6385C207.154 57.0968 207.27 56.5162 207.27 55.9298C207.27 55.3435 207.154 54.7629 206.93 54.2212C206.706 53.6794 206.377 53.1872 205.962 52.7726C205.547 52.358 205.055 52.0291 204.513 51.8047C203.972 51.5803 203.391 51.4648 202.805 51.4648Z" fill="#88AE45"/>
<path id="Vector_6" d="M181.655 174.605C180.471 174.605 179.335 175.076 178.498 175.913C177.661 176.751 177.19 177.886 177.19 179.07C177.19 180.255 177.661 181.39 178.498 182.228C179.335 183.065 180.471 183.535 181.655 183.535C182.839 183.535 183.975 183.065 184.812 182.228C185.65 181.39 186.12 180.255 186.12 179.07C186.12 177.886 185.65 176.751 184.812 175.913C183.975 175.076 182.839 174.605 181.655 174.605ZM33.1352 139.355C30.6421 139.355 28.2512 140.346 26.4884 142.109C24.7255 143.872 23.7352 146.262 23.7352 148.755C23.7352 151.249 24.7255 153.639 26.4884 155.402C28.2512 157.165 30.6421 158.155 33.1352 158.155C35.6282 158.155 38.0191 157.165 39.782 155.402C41.5448 153.639 42.5352 151.249 42.5352 148.755C42.5352 146.262 41.5448 143.872 39.782 142.109C38.0191 140.346 35.6282 139.355 33.1352 139.355Z" fill="#FBCD59"/>
<path id="Vector_7" d="M57.3401 200.925C56.1559 200.925 55.0202 201.395 54.1829 202.233C53.3455 203.07 52.8751 204.206 52.8751 205.39C52.8751 206.574 53.3455 207.71 54.1829 208.547C55.0202 209.384 56.1559 209.855 57.3401 209.855C58.5243 209.855 59.66 209.384 60.4974 208.547C61.3347 207.71 61.8051 206.574 61.8051 205.39C61.8051 204.206 61.3347 203.07 60.4974 202.233C59.66 201.395 58.5243 200.925 57.3401 200.925Z" fill="#88AE45"/>
<path id="Vector_8" d="M42.5352 122.436C40.9771 122.436 39.4827 123.055 38.381 124.156C37.2792 125.258 36.6602 126.752 36.6602 128.311C36.6602 129.869 37.2792 131.363 38.381 132.465C39.4827 133.567 40.9771 134.186 42.5352 134.186C44.0934 134.186 45.5877 133.567 46.6895 132.465C47.7912 131.363 48.4102 129.869 48.4102 128.311C48.4102 126.752 47.7912 125.258 46.6895 124.156C45.5877 123.055 44.0934 122.436 42.5352 122.436Z" fill="white"/>
<path id="Vector_9" d="M169.67 77.0801H65.7999C60.1599 77.0801 55.6949 81.5451 55.6949 87.1851V156.04C55.6949 161.68 60.1599 166.145 65.7999 166.145H169.67C175.31 166.145 179.775 161.68 179.775 156.04V87.1851C179.775 81.5451 175.31 77.0801 169.67 77.0801ZM132.305 89.5351C132.305 90.2401 131.6 90.9451 130.895 90.9451H103.635C102.93 90.9451 102.225 90.2401 102.225 89.5351V88.5951C102.225 87.8901 102.93 87.1851 103.635 87.1851H130.895C131.6 87.1851 132.305 87.8901 132.305 88.5951V89.5351Z" fill="#FDFCEE"/>
<path id="Vector_10" d="M169.67 167.085H65.8003C59.6903 167.085 54.7552 162.15 54.7552 156.04V87.1846C54.7552 81.0746 59.6903 76.1396 65.8003 76.1396H169.67C175.78 76.1396 180.715 81.0746 180.715 87.1846V156.04C180.715 162.15 175.78 167.085 169.67 167.085ZM65.8003 78.0196C60.6303 78.0196 56.4003 82.2496 56.4003 87.4196V156.04C56.4003 161.21 60.6303 165.44 65.8003 165.44H169.67C174.84 165.44 179.07 161.21 179.07 156.04V87.1846C179.07 82.0146 174.84 77.7846 169.67 77.7846H65.8003V78.0196ZM130.895 91.8846H103.635C102.46 91.8846 101.285 90.9446 101.285 89.5346V88.5946C101.285 87.4196 102.225 86.2446 103.635 86.2446H130.895C132.07 86.2446 133.245 87.1846 133.245 88.5946V89.5346C133.245 90.7096 132.07 91.8846 130.895 91.8846ZM103.635 87.8896C103.4 87.8896 103.165 88.1246 103.165 88.3596V89.2996C103.165 89.5346 103.4 89.7696 103.635 89.7696H130.895C131.13 89.7696 131.365 89.5346 131.365 89.2996V88.3596C131.365 88.1246 131.13 87.8896 130.895 87.8896H103.635Z" fill="#472B29"/>
<path id="Vector_11" d="M107.865 55.9307H126.43V90.9457H107.865V55.9307Z" fill="#E1E0D8"/>
<path id="Vector_12" d="M126.43 91.8843H107.865C107.395 91.8843 106.925 91.4143 106.925 90.9443V55.9293C106.925 55.4593 107.395 54.9893 107.865 54.9893H126.43C126.9 54.9893 127.37 55.4593 127.37 55.9293V90.9443C127.37 91.4143 126.9 91.8843 126.43 91.8843ZM108.805 90.0043H125.725V56.8693H108.805V90.0043Z" fill="#472B29"/>
<path id="Vector_13" d="M125.725 65.0955H108.805C108.335 65.0955 108.1 64.8605 108.1 64.3905C108.1 63.9205 108.335 63.6855 108.805 63.6855H125.725C126.195 63.6855 126.43 63.9205 126.43 64.3905C126.43 64.8605 125.96 65.0955 125.725 65.0955ZM117.265 82.7205C114.21 82.7205 111.625 80.1355 111.625 77.0805C111.625 74.0255 114.21 71.4405 117.265 71.4405C120.32 71.4405 122.905 74.0255 122.905 77.0805C122.905 80.1355 120.32 82.7205 117.265 82.7205ZM117.265 72.8505C114.915 72.8505 113.035 74.7305 113.035 77.0805C113.035 79.4305 114.915 81.3105 117.265 81.3105C119.615 81.3105 121.495 79.4305 121.495 77.0805C121.495 74.7305 119.615 72.8505 117.265 72.8505Z" fill="#472B29"/>
<path id="Vector_14" d="M69.7949 99.4053H108.805V150.165H69.7949V99.4053Z" fill="#FBCD59"/>
<path id="Vector_15" d="M108.805 151.105H69.795C69.325 151.105 68.855 150.635 68.855 150.165V99.4048C68.855 98.9348 69.325 98.4648 69.795 98.4648H108.805C109.275 98.4648 109.745 98.9348 109.745 99.4048V150.165C109.51 150.635 109.275 151.105 108.805 151.105ZM70.735 149.225H107.865V100.345H70.735V149.225ZM165.675 103.165H121.025C120.555 103.165 120.32 102.93 120.32 102.46C120.32 101.99 120.555 101.755 121.025 101.755H165.675C166.145 101.755 166.38 101.99 166.38 102.46C166.38 102.93 165.91 103.165 165.675 103.165ZM165.675 113.505H121.025C120.555 113.505 120.32 113.27 120.32 112.8C120.32 112.33 120.555 112.095 121.025 112.095H165.675C166.145 112.095 166.38 112.33 166.38 112.8C166.38 113.27 165.91 113.505 165.675 113.505ZM159.33 123.845H121.025C120.555 123.845 120.32 123.61 120.32 123.14C120.32 122.67 120.555 122.435 121.025 122.435H159.33C159.8 122.435 160.035 122.67 160.035 123.14C160.035 123.61 159.565 123.845 159.33 123.845ZM144.055 134.185H121.025C120.555 134.185 120.32 133.95 120.32 133.48C120.32 133.01 120.555 132.775 121.025 132.775H144.055C144.525 132.775 144.76 133.01 144.76 133.48C144.76 133.95 144.525 134.185 144.055 134.185Z" fill="#472B29"/>
<path id="Vector_16" d="M122.2 142.645C122.905 142.645 123.61 143.115 123.61 143.82V148.755C123.61 149.46 123.14 149.93 122.435 149.93C121.73 149.93 121.26 149.46 121.26 148.755V143.82C121.025 143.35 121.495 142.645 122.2 142.645Z" fill="#E1E0D8"/>
<path id="Vector_17" d="M122.2 150.634C121.26 150.634 120.32 149.929 120.32 148.754V143.819C120.32 142.879 121.025 141.939 122.2 141.939C123.14 141.939 124.08 142.644 124.08 143.819V148.754C124.08 149.929 123.375 150.634 122.2 150.634ZM122.2 143.114C121.73 143.114 121.495 143.584 121.495 143.819V148.754C121.495 149.224 121.965 149.459 122.2 149.459C122.67 149.459 123.14 148.989 123.14 148.754V143.819C123.14 143.584 122.67 143.114 122.2 143.114Z" fill="#472B29"/>
<path id="Vector_18" d="M129.485 142.645C130.19 142.645 130.895 143.115 130.895 143.82V148.755C130.895 149.46 130.425 149.93 129.72 149.93C129.015 149.93 128.545 149.46 128.545 148.755V143.82C128.075 143.35 128.78 142.645 129.485 142.645Z" fill="#E1E0D8"/>
<path id="Vector_19" d="M129.485 150.634C128.545 150.634 127.605 149.929 127.605 148.754V143.819C127.605 142.879 128.31 141.939 129.485 141.939C130.425 141.939 131.365 142.644 131.365 143.819V148.754C131.13 149.929 130.425 150.634 129.485 150.634ZM129.485 143.114C129.015 143.114 128.545 143.584 128.545 143.819V148.754C128.545 149.224 129.015 149.459 129.485 149.459C129.955 149.459 130.425 148.989 130.425 148.754V143.819C130.19 143.584 129.955 143.114 129.485 143.114Z" fill="#472B29"/>
<path id="Vector_20" d="M136.535 142.645C137.24 142.645 137.945 143.115 137.945 143.82V148.755C137.945 149.46 137.475 149.93 136.77 149.93C136.065 149.93 135.595 149.46 135.595 148.755V143.82C135.36 143.35 135.83 142.645 136.535 142.645Z" fill="#E1E0D8"/>
<path id="Vector_21" d="M136.535 150.634C135.595 150.634 134.655 149.929 134.655 148.754V143.819C134.655 142.879 135.36 141.939 136.535 141.939C137.475 141.939 138.415 142.644 138.415 143.819V148.754C138.415 149.929 137.475 150.634 136.535 150.634ZM136.535 143.114C136.065 143.114 135.83 143.584 135.83 143.819V148.754C135.83 149.224 136.3 149.459 136.535 149.459C137.005 149.459 137.475 148.989 137.475 148.754V143.819C137.475 143.584 137.005 143.114 136.535 143.114Z" fill="#472B29"/>
<path id="Vector_22" d="M143.82 142.645C144.525 142.645 145.23 143.115 145.23 143.82V148.755C145.23 149.46 144.76 149.93 144.055 149.93C143.35 149.93 142.88 149.46 142.88 148.755V143.82C142.41 143.35 143.115 142.645 143.82 142.645Z" fill="#E1E0D8"/>
<path id="Vector_23" d="M143.82 150.634C142.88 150.634 141.94 149.929 141.94 148.754V143.819C141.94 142.879 142.645 141.939 143.82 141.939C144.76 141.939 145.7 142.644 145.7 143.819V148.754C145.465 149.929 144.76 150.634 143.82 150.634ZM143.82 143.114C143.35 143.114 143.115 143.584 143.115 143.819V148.754C143.115 149.224 143.585 149.459 143.82 149.459C144.29 149.459 144.76 148.989 144.76 148.754V143.819C144.525 143.584 144.29 143.114 143.82 143.114Z" fill="#472B29"/>
<path id="Vector_24" d="M150.87 142.645C151.575 142.645 152.28 143.115 152.28 143.82V148.755C152.28 149.46 151.81 149.93 150.87 149.93C150.165 149.93 149.695 149.46 149.695 148.755V143.82C149.695 143.35 150.165 142.645 150.87 142.645Z" fill="#E1E0D8"/>
<path id="Vector_25" d="M150.87 150.634C149.93 150.634 148.99 149.929 148.99 148.754V143.819C148.99 142.879 149.695 141.939 150.87 141.939C151.81 141.939 152.75 142.644 152.75 143.819V148.754C152.75 149.929 151.81 150.634 150.87 150.634ZM150.87 143.114C150.4 143.114 150.165 143.584 150.165 143.819V148.754C150.165 149.224 150.635 149.459 150.87 149.459C151.34 149.459 151.81 148.989 151.81 148.754V143.819C151.81 143.584 151.34 143.114 150.87 143.114Z" fill="#472B29"/>
<path id="Vector_26" d="M158.155 142.645C158.86 142.645 159.565 143.115 159.565 143.82V148.755C159.565 149.46 159.095 149.93 158.155 149.93C157.45 149.93 156.745 149.46 156.745 148.755V143.82C156.745 143.35 157.45 142.645 158.155 142.645Z" fill="#E1E0D8"/>
<path id="Vector_27" d="M158.155 150.634C157.215 150.634 156.275 149.929 156.275 148.754V143.819C156.275 142.879 156.98 141.939 158.155 141.939C159.095 141.939 160.035 142.644 160.035 143.819V148.754C159.8 149.929 159.095 150.634 158.155 150.634ZM158.155 143.114C157.685 143.114 157.45 143.584 157.45 143.819V148.754C157.45 149.224 157.92 149.459 158.155 149.459C158.625 149.459 159.095 148.989 159.095 148.754V143.819C158.86 143.584 158.625 143.114 158.155 143.114Z" fill="#472B29"/>
<path id="Vector_28" d="M108.805 56.6348H125.725V63.9198H108.805V56.6348Z" fill="#88AE45"/>
<path id="Vector_29" d="M105.515 149.93C106.69 149.46 107.865 148.99 109.04 148.285C108.805 144.29 108.57 141.705 108.57 141.705C108.335 139.825 107.16 138.18 105.28 137.71H105.045L104.575 137.475C103.4 137.005 96.1151 134.42 96.1151 134.42C95.6451 134.185 95.1751 133.95 94.9401 133.245C94.7051 132.305 94.7051 131.365 94.7051 130.425C93.0601 130.895 91.4151 131.365 89.7701 131.835C87.6551 131.6 85.7751 130.66 83.8951 129.72C83.8951 129.72 83.8951 132.775 83.6601 133.245C83.4251 133.715 82.9551 134.185 82.4851 134.42L75.4351 137.005C74.7301 137.24 74.0251 137.475 73.3201 137.945C71.9101 138.885 70.7351 140.295 70.2651 141.94L69.7951 145.23C69.7951 145.7 69.7951 146.17 69.5601 146.64C71.4401 147.815 73.3201 148.755 75.2001 149.695H105.515V149.93Z" fill="#895F3F"/>
<path id="Vector_30" d="M108.805 149.93C108.57 146.17 108.335 141.94 108.335 141.94C108.1 140.06 106.925 138.415 105.045 137.945H104.81L104.34 137.71C103.635 137.475 97.2901 135.125 95.1751 134.42C92.3551 136.3 90.9451 137.24 89.3001 137.24C87.6551 137.24 86.2451 136.065 83.4251 134.42L79.9001 135.36H79.6651L75.2001 137.005C74.4951 137.24 73.7901 137.475 73.0851 137.945C71.6751 138.885 70.5001 140.295 70.0301 141.94L69.5601 145.23C69.5601 145.23 69.5601 148.285 69.5601 149.93H108.805Z" fill="#6F913D"/>
<path id="Vector_31" d="M84.1298 141C84.5998 141.94 83.8948 143.35 83.8948 144.525C83.8948 146.405 84.3648 148.285 85.0698 149.93H92.3548C93.0598 148.05 94.2348 146.17 95.4098 144.525C94.7048 143.585 94.2348 142.645 93.5298 141.705C93.2948 141.47 93.2948 141.235 93.5298 141C93.9998 140.53 94.4698 140.295 95.1748 140.06C95.8798 139.825 96.3498 139.59 97.0548 139.355C96.5848 137.71 95.8798 136.3 94.9398 134.89C94.7049 134.655 94.7049 134.42 94.9398 134.42C92.1198 136.3 90.7098 137.24 89.0648 137.24C87.4198 137.24 86.0098 136.065 83.4248 134.655C83.1898 136.065 81.7798 138.18 82.7198 139.59C83.1898 140.06 83.8948 140.295 84.1298 141Z" fill="#FDFCEF"/>
<path id="Vector_32" d="M93.53 149.93L96.82 144.29L94.235 141.235L98.23 139.825C96.585 134.42 94.235 133.48 94.235 133.48C93.53 138.885 92.12 145.23 91.18 149.93H93.53ZM80.84 144.29L83.895 149.93H86.245C85.07 145.23 83.895 138.885 83.19 133.48C83.19 133.48 80.84 134.42 79.195 139.825L83.19 141.235L80.84 144.29Z" fill="#88AE45"/>
<path id="Vector_33" d="M101.05 116.325H100.58C99.6403 116.325 99.4053 116.56 99.4053 116.09C99.4053 115.15 99.4053 110.92 99.4053 110.685C99.4053 106.455 94.9403 102.93 89.3003 102.695H89.0653C83.4253 102.93 78.9603 106.455 78.9603 110.685C78.9603 110.92 78.7253 115.15 78.9603 116.09C78.9603 116.795 78.7253 116.325 77.7853 116.325H77.5503C76.6103 116.325 75.6703 117.03 75.4353 117.97C75.6703 119.615 76.1403 121.26 76.8453 122.905C77.3153 123.61 78.0203 123.845 78.7253 124.315C78.9603 124.55 79.1953 125.02 79.1953 125.255C79.6653 126.9 80.6053 128.075 81.7803 129.25C82.2503 129.72 86.2453 133.245 89.5353 133.245C92.3553 132.775 94.9403 131.365 97.0553 129.25C98.2303 128.31 99.1703 126.9 99.6403 125.255C99.6403 124.785 99.8753 124.55 100.11 124.315C100.815 123.845 101.52 123.61 101.99 122.905C102.695 121.26 102.93 119.615 103.4 117.97C102.93 116.795 101.99 116.09 101.05 116.325Z" fill="#A3754F"/>
<path id="Vector_34" d="M89.2998 123.14C90.0048 123.14 90.4748 122.905 90.9448 122.435L89.2998 123.14ZM90.9448 122.2C90.0048 122.905 88.8298 122.905 87.8898 122.2H90.9448ZM87.6548 122.2C88.1248 122.67 88.5948 122.905 89.2998 122.905L87.6548 122.2ZM87.1848 113.975L87.6548 113.27C85.7748 112.8 83.8948 112.8 82.2498 113.505L82.7198 114.21C83.8948 113.74 85.5398 113.74 87.1848 113.975ZM95.8798 113.975L96.3498 113.27C94.4698 112.8 92.5898 112.8 90.9448 113.505L91.4148 114.21C92.8248 113.74 94.4698 113.74 95.8798 113.975ZM84.5998 115.15C84.1298 115.15 83.6598 115.385 83.6598 115.855H83.8948C84.3648 115.855 84.5998 116.09 84.5998 116.56C84.5998 117.03 84.3648 117.265 83.8948 117.265H83.6598C83.6598 117.97 84.1298 118.205 84.8348 118.44C85.5398 118.44 86.0098 117.735 86.0098 116.795C86.0098 116.09 85.5398 115.385 84.5998 115.15ZM93.7648 115.15C93.2948 115.15 93.0598 115.385 92.8248 115.62H93.0598C93.5298 115.62 93.7648 115.855 93.7648 116.325C93.7648 116.795 93.5298 117.03 93.0598 117.03C92.8248 117.03 92.5898 116.795 92.5898 116.795C92.5898 117.5 93.0598 118.205 93.7648 118.44C94.4698 118.44 95.1748 117.735 94.9398 116.795C95.1748 116.09 94.7048 115.15 93.7648 115.15ZM94.2348 124.785C91.1798 126.665 87.4198 126.665 84.1298 124.785C84.1298 124.785 84.1298 124.785 84.1298 125.02C87.1848 127.135 91.4148 127.135 94.4698 125.02L94.2348 124.785ZM79.6648 112.8C80.1348 110.685 80.8398 108.57 82.0148 106.69C81.7798 106.22 81.0748 105.985 80.6048 106.22C79.1948 108.805 78.4898 111.625 78.4898 114.445C78.4898 115.855 78.7248 117.03 79.1948 118.205C79.4298 116.56 79.1948 114.68 79.6648 112.8ZM98.6998 112.8C98.2298 110.685 97.5248 108.57 96.5848 106.69C96.8198 106.22 97.5248 105.985 97.9948 106.22C99.4048 108.805 100.11 111.625 100.11 114.445C100.11 115.855 99.8748 117.03 99.4048 118.205C99.1698 116.56 99.1698 114.68 98.6998 112.8ZM90.4748 129.955V129.72H87.8898C87.8898 129.72 87.8898 129.72 87.8898 129.955C87.8898 129.955 87.8898 129.955 87.8898 130.19H90.4748V129.955Z" fill="#512C2B"/>
<path id="Vector_35" d="M69.7947 150.634C69.5597 150.634 69.3247 150.399 69.0897 150.164C69.0897 147.579 69.3247 144.759 69.5597 142.174C70.0297 140.294 71.2047 138.649 72.8497 137.709C73.5547 137.239 74.2597 137.004 75.1997 136.769L82.2497 134.184C82.7197 134.184 82.9547 133.714 83.1897 133.479C83.1897 133.244 83.1897 132.304 83.4247 131.599C82.7197 131.129 82.0147 130.659 81.3097 129.954C79.8997 128.779 78.9597 127.369 78.4897 125.724C78.4897 125.254 78.2547 125.254 78.0197 125.019C77.7847 124.784 77.5497 124.784 77.5497 124.549C77.0797 124.314 76.6097 124.079 76.1397 123.374C75.4347 121.729 74.9647 119.849 74.7297 117.969V117.734C74.9647 116.559 76.1397 115.854 77.3147 115.854H77.7847C78.0197 115.854 78.2547 115.854 78.2547 115.854C78.2547 114.679 78.2547 112.564 78.2547 110.919V110.684C78.2547 105.984 82.9547 102.224 89.0647 101.989H89.2997C95.4097 102.224 100.11 105.984 100.11 110.684V115.854C100.345 115.854 100.345 115.854 100.58 115.854H101.05C102.225 115.854 103.4 116.794 103.635 117.734V117.969C103.4 119.849 102.93 121.494 102.225 123.139C101.755 123.844 101.285 124.079 100.815 124.314C100.58 124.314 100.345 124.549 100.11 124.784C99.8747 125.019 99.8747 125.254 99.8747 125.489C99.4047 127.369 98.4647 128.779 97.0547 129.954C96.8197 130.189 95.8797 130.894 94.9397 131.599C94.9397 132.069 94.9397 132.774 95.1747 133.244C95.4097 133.479 95.6447 133.714 95.8797 133.949C96.1147 134.184 103.165 136.534 104.34 137.239L105.28 137.474C107.395 137.944 108.805 139.824 108.805 141.939L109.275 149.694C109.275 149.929 109.04 150.399 108.805 150.399C108.335 150.399 108.1 150.164 108.1 149.929L107.63 142.174C107.63 140.529 106.455 139.119 104.81 138.884L103.87 138.414C102.695 137.944 95.6447 135.359 95.4097 135.359C94.7047 135.124 94.2347 134.654 93.7647 133.949C93.5297 133.009 93.2947 132.304 93.5297 131.364C93.5297 131.129 93.5297 131.129 93.7647 130.894C94.9397 129.954 95.8797 129.249 96.1147 129.014C97.2897 128.074 97.9947 126.664 98.4647 125.254C98.4647 124.784 98.6997 124.314 99.1697 123.844C99.4047 123.609 99.6397 123.609 99.8747 123.374C100.345 123.139 100.58 122.904 100.815 122.669C101.52 121.259 101.99 119.614 101.99 117.969C101.755 117.264 101.285 117.029 100.58 117.029H100.345C100.11 117.029 99.8747 117.029 99.6397 117.029C99.4047 117.029 98.9347 117.029 98.6997 116.794C98.4647 116.559 98.4647 116.089 98.4647 116.089V110.684C98.4647 106.689 94.2347 103.399 88.8297 103.164H88.5947C83.1897 103.399 78.9597 106.689 78.9597 110.684V111.154C78.9597 113.974 78.9597 115.619 78.9597 116.089C78.9597 116.324 78.9597 116.794 78.7247 117.029C78.4897 117.264 78.2547 117.264 78.0197 117.264C77.7847 117.264 77.5497 117.264 77.3147 117.264H76.8447C76.1397 117.264 75.6697 117.734 75.4347 118.204C75.6697 119.849 75.9047 121.494 76.6097 122.904C76.8447 123.139 77.0797 123.374 77.5497 123.609C77.7847 123.844 78.0197 123.844 78.2547 124.079C78.7247 124.549 78.9597 125.019 78.9597 125.489C79.4297 126.899 80.1347 128.074 81.3097 129.014C82.0147 129.719 82.7197 130.189 83.4247 130.659C83.6597 130.659 83.6597 130.894 83.6597 131.129C83.6597 132.069 83.4247 133.009 83.4247 133.479C83.1897 134.419 82.4847 134.889 81.7797 135.124L74.7297 137.709C74.0247 137.944 73.3197 138.179 72.6147 138.414C71.2047 139.119 70.0297 140.529 69.7947 142.174C69.3247 144.759 69.3247 147.344 69.3247 149.929C70.2647 150.399 70.0297 150.634 69.7947 150.634Z" fill="#472B29"/>
<path id="Vector_36" d="M101.52 121.025L100.11 120.79V119.85H99.8748L99.4048 118.675L100.815 117.97C101.05 117.97 101.285 117.97 101.52 117.97C101.755 118.205 101.755 118.44 101.755 118.675L101.52 121.025ZM77.0798 120.555L76.8448 118.44C76.8448 118.205 76.8448 117.97 77.0798 117.735C77.3148 117.5 77.5498 117.5 77.7848 117.735L79.1948 118.44L78.7248 119.85L78.4898 119.615V120.555H77.0798Z" fill="#895D3D"/>
<path id="Vector_37" d="M78.7251 125.255C78.4901 125.255 78.2551 125.02 78.2551 124.785L78.4901 116.325C78.4901 116.09 78.7251 115.855 78.9601 115.855C79.1951 115.855 79.4301 116.09 79.4301 116.325L79.1951 124.785C79.1951 125.02 79.1951 125.255 78.7251 125.255ZM99.6401 125.255C99.4051 125.255 99.1701 125.02 99.1701 124.785L98.9351 116.325C98.9351 116.09 99.1701 115.855 99.4051 115.855C99.6401 115.855 99.8751 116.09 99.8751 116.325L100.11 124.785C100.11 125.02 99.8751 125.255 99.6401 125.255Z" fill="#472B29"/>
<path id="Vector_38" d="M100.345 113.975C100.815 110.92 100.11 107.63 98.4652 105.045C95.8802 102.93 92.5902 101.755 89.3002 101.755C86.4802 101.755 83.6602 102.46 81.3102 104.105C78.7252 106.69 77.5502 110.45 78.2552 113.975C78.4902 116.09 78.7252 118.205 79.1952 120.32C79.4302 118.44 79.4302 114.21 79.9002 112.33C80.1352 110.92 80.6052 109.51 81.0752 108.335C83.6602 105.28 94.7052 105.515 97.5252 108.335C97.9952 109.745 98.4652 110.92 98.7002 112.33C99.1702 114.21 99.1702 118.44 99.4052 120.32C99.8752 117.97 100.11 115.855 100.345 113.975Z" fill="#512C2B"/>
<path id="Vector_39" d="M87.8899 115.855C86.0099 113.505 78.7249 115.15 78.7249 115.15L79.1949 116.795C79.6649 116.795 79.6649 117.97 79.8999 118.44C80.1349 120.555 82.0149 122.2 84.1299 122.2C84.3649 122.2 84.3649 122.2 84.5999 122.2C86.7149 122.2 88.3599 120.555 88.3599 118.675C88.3599 117.5 88.3599 116.56 87.8899 115.855ZM87.6549 118.44C87.6549 120.085 86.2449 121.495 84.5999 121.495H84.1299C81.0749 121.495 80.6049 118.91 80.6049 117.265C80.6049 116.325 81.3099 115.62 82.2499 115.385C82.9549 115.385 83.4249 115.385 84.1299 115.385C86.2449 115.385 87.1849 115.855 87.6549 116.325C87.6549 117.03 87.6549 117.735 87.6549 118.44ZM90.0049 118.205C90.0049 120.32 91.6499 121.965 93.7649 121.965C93.7649 121.965 93.7649 121.965 93.9999 121.965C96.1149 122.435 98.2299 121.025 98.6999 118.675C98.6999 118.44 98.6999 118.44 98.6999 118.205C98.6999 117.735 98.6999 116.56 99.4049 116.56C99.4049 116.09 99.6399 115.62 99.6399 114.915C99.6399 114.915 92.5899 113.27 90.4749 115.62C90.2399 116.56 90.0049 117.5 90.0049 118.205ZM91.1799 116.325C91.4149 115.855 92.3549 115.385 94.7049 115.385C95.4099 115.385 95.8799 115.385 96.5849 115.385C97.5249 115.385 98.2299 116.325 98.2299 117.265C98.2299 118.91 97.7599 121.495 94.7049 121.495H93.9999C92.3549 121.495 90.9449 120.085 90.7099 118.44C90.7099 117.735 90.9449 117.03 91.1799 116.325Z" fill="#F1BC19"/>
<path id="Vector_40" d="M90.4748 117.736C90.0048 117.501 89.5348 117.266 89.0648 117.266C88.5948 117.266 88.1248 117.266 87.8898 117.736L87.4198 116.561H90.7098C90.7098 117.031 90.7098 117.266 90.4748 117.736Z" fill="#F1BC19"/>
<path id="Vector_41" d="M89.5353 133.48C87.1853 133.245 84.8353 132.305 82.9553 131.13C82.7203 131.13 82.7203 130.895 82.9553 130.66C82.9553 130.425 83.1903 130.425 83.4253 130.66C85.3053 131.835 87.4203 132.54 89.5353 133.01C91.4153 132.54 93.0603 131.835 94.7053 130.895C94.9403 130.895 95.1753 130.895 95.1753 130.895C95.1753 131.13 95.1753 131.365 95.1753 131.365C93.5303 132.305 91.6503 133.01 89.5353 133.48C89.7703 133.48 89.7703 133.48 89.5353 133.48Z" fill="#472B29"/>
</g>
</svg>
