<svg width="283" height="283" viewBox="0 0 283 283" fill="none" xmlns="http://www.w3.org/2000/svg">
<path d="M271.884 168.587C271.884 172.853 269.09 177.495 262.657 182.213C256.288 186.884 246.873 191.22 234.961 194.914C211.176 202.292 178.127 206.903 141.487 206.903C104.848 206.903 71.7989 202.292 48.013 194.914C36.1015 191.22 26.6868 186.884 20.3175 182.213C13.8844 177.495 11.0901 172.853 11.0901 168.587C11.0901 164.321 13.8844 159.68 20.3175 154.962C26.6868 150.291 36.1015 145.955 48.013 142.26C71.7989 134.882 104.848 130.272 141.487 130.272C178.127 130.272 211.176 134.882 234.961 142.26C246.873 145.955 256.288 150.291 262.657 154.962C269.09 159.68 271.884 164.321 271.884 168.587Z" stroke="url(#paint0_linear_125_5724)" stroke-width="6.17996"/>
<path d="M144.467 216.94L146.388 196.443C146.426 196.04 146.232 195.65 145.887 195.437C145.543 195.225 145.107 195.226 144.764 195.44L130.374 204.43C130.093 204.606 129.909 204.903 129.878 205.234C129.847 205.564 129.972 205.89 130.216 206.115L142.684 217.623C142.982 217.897 143.409 217.979 143.787 217.835C144.166 217.69 144.429 217.343 144.467 216.94Z" fill="#557A46"/>
<rect x="41.9897" y="67.236" width="199.304" height="115.565" rx="6.48896" fill="white" stroke="#2D3533" stroke-width="2.47198"/>
<path d="M121.628 79.2529V73.3202H123.95C124.368 73.3202 124.716 73.3851 124.993 73.5151C125.275 73.6451 125.487 73.8259 125.628 74.0575C125.77 74.2835 125.84 74.5463 125.84 74.8457C125.84 75.1452 125.775 75.3966 125.645 75.6C125.515 75.8035 125.343 75.9588 125.128 76.0662C124.919 76.1735 124.69 76.2385 124.442 76.2611L124.569 76.1679C124.834 76.1735 125.072 76.2442 125.281 76.3798C125.496 76.5154 125.665 76.6934 125.789 76.9137C125.914 77.1284 125.976 77.3686 125.976 77.6341C125.976 77.9449 125.9 78.2246 125.747 78.4732C125.6 78.7162 125.383 78.9083 125.094 79.0495C124.806 79.1851 124.453 79.2529 124.035 79.2529H121.628ZM122.645 78.4223H123.882C124.216 78.4223 124.476 78.3432 124.662 78.185C124.849 78.0268 124.942 77.8065 124.942 77.524C124.942 77.2414 124.846 77.0183 124.654 76.8544C124.462 76.6849 124.199 76.6001 123.865 76.6001H122.645V78.4223ZM122.645 75.8289H123.806C124.134 75.8289 124.382 75.7554 124.552 75.6085C124.721 75.456 124.806 75.2469 124.806 74.9813C124.806 74.7214 124.721 74.518 124.552 74.3711C124.382 74.2186 124.131 74.1423 123.798 74.1423H122.645V75.8289ZM126.502 79.2529L128.672 73.3202H129.807L131.977 79.2529H130.901L129.231 74.5067L127.562 79.2529H126.502ZM127.468 77.8545L127.74 77.0493H130.664L130.935 77.8545H127.468ZM135.09 79.3546C134.502 79.3546 133.994 79.2275 133.564 78.9732C133.14 78.7133 132.813 78.3545 132.581 77.8969C132.355 77.4335 132.242 76.8996 132.242 76.295C132.242 75.6848 132.355 75.1508 132.581 74.6932C132.813 74.2299 133.14 73.8682 133.564 73.6083C133.994 73.3484 134.502 73.2185 135.09 73.2185C135.796 73.2185 136.372 73.3936 136.819 73.7439C137.265 74.0886 137.548 74.5773 137.666 75.2102H136.548C136.468 74.8768 136.307 74.6141 136.064 74.422C135.821 74.2299 135.494 74.1338 135.081 74.1338C134.708 74.1338 134.386 74.2214 134.115 74.3965C133.85 74.566 133.643 74.8147 133.496 75.1424C133.355 75.4644 133.285 75.8487 133.285 76.295C133.285 76.7414 133.355 77.1256 133.496 77.4477C133.643 77.7641 133.85 78.0099 134.115 78.185C134.386 78.3545 134.708 78.4393 135.081 78.4393C135.494 78.4393 135.821 78.3517 136.064 78.1766C136.307 77.9957 136.468 77.7471 136.548 77.4307H137.666C137.553 78.0297 137.271 78.5014 136.819 78.8461C136.372 79.1851 135.796 79.3546 135.09 79.3546ZM138.661 79.2529V73.3202H139.679V75.7696L141.916 73.3202H143.179L140.984 75.6763L143.23 79.2529H141.992L140.263 76.4561L139.679 77.0917V79.2529H138.661ZM148.086 79.3546C147.656 79.3546 147.275 79.2784 146.942 79.1258C146.608 78.9732 146.348 78.7557 146.162 78.4732C145.975 78.1907 145.879 77.8545 145.874 77.4646H146.95C146.95 77.6624 146.995 77.8404 147.086 77.9986C147.182 78.1511 147.312 78.2726 147.475 78.363C147.645 78.4534 147.848 78.4986 148.086 78.4986C148.289 78.4986 148.464 78.4675 148.611 78.4054C148.764 78.3376 148.88 78.2444 148.959 78.1257C149.043 78.0014 149.086 77.8573 149.086 77.6935C149.086 77.507 149.041 77.3544 148.95 77.2358C148.865 77.1115 148.747 77.007 148.594 76.9222C148.442 76.8374 148.267 76.764 148.069 76.7018C147.871 76.634 147.662 76.5634 147.442 76.49C146.973 76.3318 146.619 76.1312 146.382 75.8882C146.145 75.6396 146.026 75.3091 146.026 74.8966C146.026 74.5519 146.108 74.2553 146.272 74.0067C146.436 73.7581 146.665 73.566 146.958 73.4303C147.258 73.2891 147.603 73.2185 147.992 73.2185C148.388 73.2185 148.733 73.2891 149.026 73.4303C149.326 73.5716 149.56 73.7694 149.73 74.0236C149.905 74.2722 149.995 74.5717 150.001 74.922H148.916C148.911 74.7751 148.871 74.6395 148.798 74.5152C148.724 74.3852 148.617 74.2807 148.476 74.2016C148.34 74.1169 148.173 74.0745 147.976 74.0745C147.806 74.0688 147.653 74.0971 147.518 74.1592C147.388 74.2157 147.283 74.3005 147.204 74.4135C147.131 74.5208 147.094 74.6565 147.094 74.8203C147.094 74.9785 147.128 75.1113 147.196 75.2187C147.269 75.3204 147.374 75.4079 147.509 75.4814C147.645 75.5492 147.803 75.6142 147.984 75.6763C148.165 75.7385 148.363 75.8063 148.577 75.8797C148.871 75.9758 149.137 76.0944 149.374 76.2357C149.617 76.3713 149.809 76.5493 149.95 76.7696C150.092 76.99 150.162 77.2753 150.162 77.6257C150.162 77.9308 150.083 78.2161 149.925 78.4817C149.767 78.7416 149.535 78.9535 149.23 79.1173C148.925 79.2755 148.543 79.3546 148.086 79.3546ZM151.151 79.2529V73.3202H152.168V79.2529H151.151ZM153.361 79.2529V73.3202H155.276C155.966 73.3202 156.534 73.4416 156.98 73.6846C157.432 73.9276 157.765 74.2722 157.98 74.7186C158.2 75.1593 158.311 75.6848 158.311 76.295C158.311 76.894 158.2 77.4166 157.98 77.863C157.765 78.3037 157.432 78.6455 156.98 78.8885C156.534 79.1314 155.966 79.2529 155.276 79.2529H153.361ZM154.378 78.3884H155.226C155.74 78.3884 156.144 78.3065 156.438 78.1427C156.737 77.9731 156.949 77.733 157.073 77.4222C157.203 77.1058 157.268 76.7301 157.268 76.295C157.268 75.8543 157.203 75.4786 157.073 75.1678C156.949 74.8514 156.737 74.6084 156.438 74.4389C156.144 74.2638 155.74 74.1762 155.226 74.1762H154.378V78.3884ZM159.304 79.2529V73.3202H163.135V74.1423H160.321V75.8458H162.88V76.651H160.321V78.4308H163.135V79.2529H159.304Z" fill="black"/>
<rect x="57.4397" y="109.568" width="76.9405" height="5.25296" fill="#454C49"/>
<rect x="57.4397" y="124.4" width="120.509" height="5.25296" fill="#454C49"/>
<rect x="57.4397" y="122.237" width="120.509" height="0.926994" fill="#454C49"/>
<rect x="57.4397" y="137.069" width="122.054" height="5.25296" fill="#454C49"/>
<line x1="40.7537" y1="88.8658" x2="242.529" y2="88.8658" stroke="#2D3533" stroke-width="0.617996"/>
<line x1="40.7537" y1="162.408" x2="242.529" y2="162.408" stroke="#2D3533" stroke-width="0.617996"/>
<defs>
<linearGradient id="paint0_linear_125_5724" x1="152.16" y1="145.602" x2="99.2771" y2="239.857" gradientUnits="userSpaceOnUse">
<stop offset="0.546875" stop-color="#557A46"/>
<stop offset="0.763198" stop-color="#E6EDB7" stop-opacity="0.09"/>
<stop offset="0.94312" stop-color="#E6EDB7" stop-opacity="0.09"/>
</linearGradient>
</defs>
</svg>
