<svg width="283" height="283" viewBox="0 0 283 283" fill="none" xmlns="http://www.w3.org/2000/svg">
<rect x="42.236" y="83.236" width="199.304" height="115.565" rx="6.48896" fill="white" stroke="#2D3533" stroke-width="2.47198"/>
<path d="M118.775 95.2529V89.3202H122.564V90.1423H119.792V91.8797H122.055V92.6849H119.792V95.2529H118.775ZM123.435 95.2529V89.3202H125.562C126.031 89.3202 126.419 89.4021 126.724 89.566C127.034 89.7242 127.263 89.9389 127.41 90.2101C127.563 90.4756 127.639 90.7779 127.639 91.1169C127.639 91.4334 127.566 91.7272 127.419 91.9984C127.272 92.2696 127.043 92.4871 126.732 92.651C126.421 92.8148 126.023 92.8968 125.537 92.8968H124.452V95.2529H123.435ZM126.529 95.2529L125.283 92.634H126.385L127.69 95.2529H126.529ZM124.452 92.1425H125.495C125.873 92.1425 126.15 92.0521 126.325 91.8713C126.506 91.6848 126.596 91.4418 126.596 91.1424C126.596 90.8486 126.509 90.6141 126.334 90.4389C126.159 90.2581 125.879 90.1677 125.495 90.1677H124.452V92.1425ZM131.395 95.3546C130.824 95.3546 130.318 95.2275 129.877 94.9732C129.442 94.7133 129.101 94.3545 128.852 93.8969C128.603 93.4335 128.479 92.8968 128.479 92.2865C128.479 91.682 128.603 91.1508 128.852 90.6932C129.101 90.2299 129.442 89.8682 129.877 89.6083C130.318 89.3484 130.824 89.2185 131.395 89.2185C131.977 89.2185 132.488 89.3484 132.929 89.6083C133.369 89.8682 133.711 90.2299 133.954 90.6932C134.197 91.1508 134.319 91.682 134.319 92.2865C134.319 92.8968 134.197 93.4335 133.954 93.8969C133.711 94.3545 133.369 94.7133 132.929 94.9732C132.488 95.2275 131.977 95.3546 131.395 95.3546ZM131.403 94.4393C131.782 94.4393 132.112 94.3545 132.395 94.185C132.677 94.0099 132.895 93.7613 133.047 93.4392C133.2 93.1171 133.276 92.7329 133.276 92.2865C133.276 91.8402 133.2 91.456 133.047 91.1339C132.895 90.8118 132.677 90.566 132.395 90.3965C132.112 90.2214 131.782 90.1338 131.403 90.1338C131.024 90.1338 130.694 90.2214 130.411 90.3965C130.129 90.566 129.909 90.8118 129.75 91.1339C129.598 91.456 129.521 91.8402 129.521 92.2865C129.521 92.7329 129.598 93.1171 129.75 93.4392C129.909 93.7613 130.129 94.0099 130.411 94.185C130.694 94.3545 131.024 94.4393 131.403 94.4393ZM135.312 95.2529V89.3202H136.329L139.186 93.6087V89.3202H140.203V95.2529H139.186L136.329 90.9729V95.2529H135.312ZM142.777 95.2529V90.1423H141.031V89.3202H145.532V90.1423H143.786V95.2529H142.777ZM150.431 95.3546C150.001 95.3546 149.62 95.2784 149.287 95.1258C148.953 94.9732 148.693 94.7557 148.507 94.4732C148.321 94.1907 148.224 93.8545 148.219 93.4646H149.295C149.295 93.6624 149.34 93.8404 149.431 93.9986C149.527 94.1511 149.657 94.2726 149.821 94.363C149.99 94.4534 150.194 94.4986 150.431 94.4986C150.634 94.4986 150.809 94.4675 150.956 94.4054C151.109 94.3376 151.225 94.2444 151.304 94.1257C151.389 94.0014 151.431 93.8573 151.431 93.6935C151.431 93.507 151.386 93.3544 151.295 93.2358C151.211 93.1115 151.092 93.007 150.939 92.9222C150.787 92.8374 150.612 92.764 150.414 92.7018C150.216 92.634 150.007 92.5634 149.787 92.49C149.318 92.3318 148.965 92.1312 148.727 91.8882C148.49 91.6396 148.371 91.3091 148.371 90.8966C148.371 90.5519 148.453 90.2553 148.617 90.0067C148.781 89.7581 149.01 89.566 149.304 89.4303C149.603 89.2891 149.948 89.2185 150.338 89.2185C150.733 89.2185 151.078 89.2891 151.372 89.4303C151.671 89.5716 151.906 89.7694 152.075 90.0236C152.25 90.2722 152.341 90.5717 152.346 90.922H151.261C151.256 90.7751 151.216 90.6395 151.143 90.5152C151.069 90.3852 150.962 90.2807 150.821 90.2016C150.685 90.1169 150.518 90.0745 150.321 90.0745C150.151 90.0688 149.999 90.0971 149.863 90.1592C149.733 90.2157 149.629 90.3005 149.549 90.4135C149.476 90.5208 149.439 90.6565 149.439 90.8203C149.439 90.9785 149.473 91.1113 149.541 91.2187C149.614 91.3204 149.719 91.4079 149.855 91.4814C149.99 91.5492 150.148 91.6142 150.329 91.6763C150.51 91.7385 150.708 91.8063 150.922 91.8797C151.216 91.9758 151.482 92.0944 151.719 92.2357C151.962 92.3713 152.154 92.5493 152.295 92.7696C152.437 92.99 152.507 93.2753 152.507 93.6257C152.507 93.9308 152.428 94.2161 152.27 94.4817C152.112 94.7416 151.88 94.9535 151.575 95.1173C151.27 95.2755 150.889 95.3546 150.431 95.3546ZM153.496 95.2529V89.3202H154.513V95.2529H153.496ZM155.706 95.2529V89.3202H157.622C158.311 89.3202 158.879 89.4416 159.325 89.6846C159.777 89.9276 160.111 90.2722 160.325 90.7186C160.546 91.1593 160.656 91.6848 160.656 92.295C160.656 92.894 160.546 93.4166 160.325 93.863C160.111 94.3037 159.777 94.6455 159.325 94.8885C158.879 95.1314 158.311 95.2529 157.622 95.2529H155.706ZM156.723 94.3884H157.571C158.085 94.3884 158.489 94.3065 158.783 94.1427C159.082 93.9731 159.294 93.733 159.418 93.4222C159.548 93.1058 159.613 92.7301 159.613 92.295C159.613 91.8543 159.548 91.4786 159.418 91.1678C159.294 90.8514 159.082 90.6084 158.783 90.4389C158.489 90.2638 158.085 90.1762 157.571 90.1762H156.723V94.3884ZM161.649 95.2529V89.3202H165.48V90.1423H162.666V91.8458H165.225V92.651H162.666V94.4308H165.48V95.2529H161.649Z" fill="black"/>
<rect x="57.686" y="125.568" width="76.9405" height="5.25296" fill="#454C49"/>
<rect x="57.686" y="140.4" width="120.509" height="5.25296" fill="#454C49"/>
<rect x="57.686" y="138.237" width="120.509" height="0.926994" fill="#454C49"/>
<rect x="57.686" y="153.069" width="122.054" height="5.25296" fill="#454C49"/>
<rect x="57.8361" y="166" width="51" height="5" fill="#454C49"/>
<rect x="115.836" y="110" width="51" height="3" fill="#454C49"/>
<line x1="41" y1="104.866" x2="242.776" y2="104.866" stroke="#2D3533" stroke-width="0.617996"/>
<line x1="41" y1="178.408" x2="242.776" y2="178.408" stroke="#2D3533" stroke-width="0.617996"/>
<rect x="188.57" y="120" width="40.5333" height="38" fill="#454C49"/>
</svg>
