<svg width="24" height="24" viewBox="0 0 24 24" fill="none" xmlns="http://www.w3.org/2000/svg">
<g id="icons8-notification 2">
<path id="Vector" d="M11.6387 2.00896C7.59694 2.19933 4.50001 5.67187 4.50001 9.6906V13.3244L3.17481 15.9904C3.17248 15.9953 3.1702 16.0001 3.16797 16.0051C2.63485 17.1388 3.49786 18.5002 4.75098 18.5002H9.00001C9.00001 20.1481 10.3521 21.5002 12 21.5002C13.6479 21.5002 15 20.1481 15 18.5002H19.2481C20.5012 18.5002 21.3653 17.1391 20.832 16.0051C20.8298 16.0001 20.8275 15.9953 20.8252 15.9904L19.5 13.3244V9.50017C19.5 5.24707 15.9317 1.80685 11.6387 2.00896ZM11.709 3.50701C15.169 3.34411 18 6.08127 18 9.50017V13.5002C17.9999 13.616 18.0266 13.7304 18.0781 13.8342L19.4746 16.6447C19.5644 16.8372 19.4605 17.0002 19.2481 17.0002H4.75098C4.53852 17.0002 4.43546 16.8375 4.5254 16.6447V16.6437L5.92188 13.8342C5.97337 13.7304 6.00011 13.616 6.00001 13.5002V9.6906C6.00001 6.44034 8.48973 3.65864 11.709 3.50701ZM10.5 18.5002H13.5C13.5 19.3372 12.8371 20.0002 12 20.0002C11.1629 20.0002 10.5 19.3372 10.5 18.5002Z" fill="#454C49"/>
</g>
</svg>
