<svg width="24" height="24" viewBox="0 0 24 24" fill="none" xmlns="http://www.w3.org/2000/svg">
<g id="icons8-notification 1">
<path id="Vector" d="M19.249 17.9996H4.75101C4.14851 17.9996 3.59601 17.6961 3.27351 17.1871C2.95101 16.6781 2.91101 16.0496 3.16751 15.5046L4.50001 12.8236V9.69007C4.50001 5.57057 7.63551 2.19657 11.6385 2.00807C13.714 1.91407 15.6785 2.64357 17.176 4.07207C18.675 5.50157 19.5 7.42907 19.5 9.49957V12.8236L20.825 15.4901C21.0885 16.0496 21.049 16.6786 20.7265 17.1876C20.404 17.6966 19.8515 17.9996 19.249 17.9996ZM9.04501 18.9996C9.28401 20.4161 10.516 21.4996 12 21.4996C13.484 21.4996 14.7155 20.4161 14.955 18.9996H9.04501Z" fill="#557A46"/>
</g>
</svg>
