<svg width="21" height="22" viewBox="0 0 21 22" fill="none" xmlns="http://www.w3.org/2000/svg">
<g id="icons8-plus_math 1">
<path id="Vector" d="M10.4898 2.6783C10.3159 2.68102 10.1501 2.75265 10.029 2.87746C9.9079 3.00227 9.84126 3.17005 9.84376 3.34395V10.344H2.84376C2.7568 10.3427 2.67046 10.3588 2.58976 10.3912C2.50906 10.4236 2.43562 10.4718 2.37369 10.5328C2.31176 10.5939 2.26258 10.6667 2.22901 10.7469C2.19545 10.8271 2.17816 10.9132 2.17816 11.0002C2.17816 11.0872 2.19545 11.1733 2.22901 11.2535C2.26258 11.3337 2.31176 11.4065 2.37369 11.4676C2.43562 11.5286 2.50906 11.5768 2.58976 11.6092C2.67046 11.6416 2.7568 11.6577 2.84376 11.6565H9.84376V18.6565C9.84253 18.7434 9.85859 18.8298 9.89102 18.9104C9.92345 18.9911 9.97159 19.0646 10.0327 19.1265C10.0937 19.1885 10.1665 19.2376 10.2467 19.2712C10.3269 19.3048 10.413 19.322 10.5 19.322C10.587 19.322 10.6731 19.3048 10.7533 19.2712C10.8335 19.2376 10.9063 19.1885 10.9674 19.1265C11.0284 19.0646 11.0766 18.9911 11.109 18.9104C11.1414 18.8298 11.1575 18.7434 11.1563 18.6565V11.6565H18.1563C18.2432 11.6577 18.3296 11.6416 18.4103 11.6092C18.491 11.5768 18.5644 11.5286 18.6263 11.4676C18.6883 11.4065 18.7374 11.3337 18.771 11.2535C18.8046 11.1733 18.8219 11.0872 18.8219 11.0002C18.8219 10.9132 18.8046 10.8271 18.771 10.7469C18.7374 10.6667 18.6883 10.5939 18.6263 10.5328C18.5644 10.4718 18.491 10.4236 18.4103 10.3912C18.3296 10.3588 18.2432 10.3427 18.1563 10.344H11.1563V3.34395C11.1575 3.25612 11.1411 3.16892 11.1081 3.08754C11.075 3.00615 11.026 2.93223 10.9638 2.87016C10.9016 2.80808 10.8277 2.75911 10.7462 2.72616C10.6648 2.6932 10.5776 2.67693 10.4898 2.6783Z" fill="black"/>
</g>
</svg>
