<svg width="81" height="79" viewBox="0 0 81 79" fill="none" xmlns="http://www.w3.org/2000/svg">
<g id="icons8-package 1">
<path id="Vector" d="M48.6623 83.8943L2.02277 75.563V15.2002L48.6623 21.4448V83.8943Z" fill="url(#paint0_linear_59_1667)"/>
<path id="Vector_2" d="M91.0625 73.4802L48.6622 83.8943V21.4448L91.0625 15.2002V73.4802Z" fill="url(#paint1_linear_59_1667)"/>
<path id="Vector_3" d="M91.0625 15.1999L48.6623 21.4444L2.02277 15.1999L46.5426 11.0439L91.0625 15.1999Z" fill="#B69B94"/>
<path id="Vector_4" d="M65.4739 18.9685L19.6985 13.5435L35.1288 12.1001L83.08 16.5079L65.4739 18.9685Z" fill="#EDE7E4"/>
<path id="Vector_5" d="M83.0374 28.2563L65.4061 31.924C65.4319 27.6047 65.4565 23.286 65.4797 18.9679L83.08 16.5073C83.0645 20.4237 83.0503 24.34 83.0374 28.2563Z" fill="#D3C2BD"/>
<path id="Vector_6" d="M10.9081 69.0097L15.4554 69.8797C15.4554 66.9308 15.4554 63.9813 15.4554 61.0311L19.4273 61.6395C17.3671 59.2718 15.3088 56.9029 13.2525 54.5327L7.43999 59.8047L10.9101 60.3355L10.9081 69.0097Z" fill="url(#paint2_linear_59_1667)"/>
<path id="Vector_7" d="M6.70569 69.6108V72.7457L20.181 75.3478L20.3147 72.2129L6.70569 69.6108Z" fill="url(#paint3_linear_59_1667)"/>
</g>
<defs>
<linearGradient id="paint0_linear_59_1667" x1="25.3425" y1="95.0291" x2="25.3425" y2="18.6238" gradientUnits="userSpaceOnUse">
<stop stop-color="#B69B94"/>
<stop offset="0.054" stop-color="#B39790"/>
<stop offset="0.368" stop-color="#A5857C"/>
<stop offset="0.683" stop-color="#9C7A70"/>
<stop offset="1" stop-color="#99766C"/>
</linearGradient>
<linearGradient id="paint1_linear_59_1667" x1="94.4338" y1="78.9653" x2="48.8018" y2="24.3258" gradientUnits="userSpaceOnUse">
<stop stop-color="#99766C"/>
<stop offset="0.259" stop-color="#90695F"/>
<stop offset="0.628" stop-color="#875E53"/>
<stop offset="1" stop-color="#845A4F"/>
</linearGradient>
<linearGradient id="paint2_linear_59_1667" x1="21.576" y1="73.9658" x2="2.36181" y2="48.0808" gradientUnits="userSpaceOnUse">
<stop stop-color="#535353"/>
<stop offset="0.098" stop-color="#4B4B4B"/>
<stop offset="0.397" stop-color="#373839"/>
<stop offset="0.698" stop-color="#2B2D2E"/>
<stop offset="1" stop-color="#27292A"/>
</linearGradient>
<linearGradient id="paint3_linear_59_1667" x1="17.0868" y1="77.2988" x2="-2.12736" y2="51.4138" gradientUnits="userSpaceOnUse">
<stop stop-color="#535353"/>
<stop offset="0.098" stop-color="#4B4B4B"/>
<stop offset="0.397" stop-color="#373839"/>
<stop offset="0.698" stop-color="#2B2D2E"/>
<stop offset="1" stop-color="#27292A"/>
</linearGradient>
</defs>
</svg>
