<svg width="24" height="24" viewBox="0 0 24 24" fill="none" xmlns="http://www.w3.org/2000/svg">
<g id="icons8-cardboard_box 2">
<path id="Vector" d="M6.95215 3C6.28524 3 5.6511 3.29662 5.22363 3.80957L3.52148 5.85254H3.52051C3.1845 6.25664 3 6.76676 3 7.29297V18.25C3 19.7599 4.24011 21 5.75 21H18.25C19.7599 21 21 19.7599 21 18.25V7.29297C21 6.76675 20.8153 6.25688 20.4785 5.85254L18.7764 3.80957C18.3489 3.29662 17.7148 3 17.0479 3H6.95215ZM6.95215 4.5H11.25V6.5H4.93359L6.37598 4.76953C6.51851 4.59849 6.72906 4.5 6.95215 4.5ZM12.75 4.5H17.0479C17.2709 4.5 17.4815 4.59849 17.624 4.76953L19.0654 6.5H12.75V4.5ZM4.5 8H19.5V18.25C19.5 18.9491 18.9491 19.5 18.25 19.5H5.75C5.05089 19.5 4.5 18.9491 4.5 18.25V8ZM9.75 10C9.65062 9.99859 9.55194 10.017 9.45972 10.054C9.36749 10.0911 9.28355 10.1461 9.21277 10.2159C9.142 10.2857 9.08579 10.3688 9.04743 10.4605C9.00907 10.5522 8.98932 10.6506 8.98932 10.75C8.98932 10.8494 9.00907 10.9478 9.04743 11.0395C9.08579 11.1312 9.142 11.2143 9.21277 11.2841C9.28355 11.3539 9.36749 11.4089 9.45972 11.446C9.55194 11.483 9.65062 11.5014 9.75 11.5H14.25C14.3494 11.5014 14.4481 11.483 14.5403 11.446C14.6325 11.4089 14.7164 11.3539 14.7872 11.2841C14.858 11.2143 14.9142 11.1312 14.9526 11.0395C14.9909 10.9478 15.0107 10.8494 15.0107 10.75C15.0107 10.6506 14.9909 10.5522 14.9526 10.4605C14.9142 10.3688 14.858 10.2857 14.7872 10.2159C14.7164 10.1461 14.6325 10.0911 14.5403 10.054C14.4481 10.017 14.3494 9.99859 14.25 10H9.75Z" fill="#454C49"/>
</g>
</svg>
