<svg width="24" height="24" viewBox="0 0 24 24" fill="none" xmlns="http://www.w3.org/2000/svg">
<g id="icons8-cardboard_box 1">
<path id="Vector" d="M11.25 6.5V3H6.9525C6.283 3 5.653 3.295 5.224 3.8095L3.5215 5.8525C3.3595 6.0465 3.235 6.2665 3.147 6.5H11.25ZM12.75 6.5H20.853C20.765 6.2665 20.6405 6.0465 20.4785 5.8525L18.776 3.8095C18.3465 3.295 17.717 3 17.0475 3H12.75V6.5ZM3 8V18.25C3 19.7665 4.234 21 5.75 21H18.25C19.766 21 21 19.7665 21 18.25V8H3ZM14.25 11.5H9.75C9.336 11.5 9 11.1645 9 10.75C9 10.3355 9.336 10 9.75 10H14.25C14.664 10 15 10.3355 15 10.75C15 11.1645 14.664 11.5 14.25 11.5Z" fill="#557A46"/>
</g>
</svg>
